<svg width="96" height="96" xmlns="http://www.w3.org/2000/svg" xmlns:xlink="http://www.w3.org/1999/xlink" xml:space="preserve" overflow="hidden"><defs><clipPath id="clip0"><rect x="544" y="54" width="96" height="96"/></clipPath></defs><g clip-path="url(#clip0)" transform="translate(-544 -54)"><path d="M610 88 574 88 574 72 610 72 610 88ZM610 102 604 102 604 96 610 96 610 102ZM610 112 604 112 604 106 610 106 610 112ZM610 122 604 122 604 116 610 116 610 122ZM610 132 604 132 604 126 610 126 610 132ZM600 102 594 102 594 96 600 96 600 102ZM600 112 594 112 594 106 600 106 600 112ZM600 122 594 122 594 116 600 116 600 122ZM600 132 594 132 594 126 600 126 600 132ZM590 102 584 102 584 96 590 96 590 102ZM590 112 584 112 584 106 590 106 590 112ZM590 122 584 122 584 116 590 116 590 122ZM590 132 574 132 574 126 590 126 590 132ZM574 116 580 116 580 122 574 122 574 116ZM574 106 580 106 580 112 574 112 574 106ZM574 96 580 96 580 102 574 102 574 96ZM616 62 568 62C565.8 62 564 63.8 564 66L564 138C564 140.2 565.8 142 568 142L616 142C618.2 142 620 140.2 620 138L620 66C620 63.8 618.2 62 616 62Z" /></g></svg>