<?xml version="1.0" encoding="iso-8859-1"?>
<!-- Generator: Adobe Illustrator 22.1.0, SVG Export Plug-In . SVG Version: 6.00 Build 0)  -->
<svg version="1.1" id="Layer_1_1_" xmlns="http://www.w3.org/2000/svg" xmlns:xlink="http://www.w3.org/1999/xlink" x="0px" y="0px"
	 viewBox="0 0 64 64" style="enable-background:new 0 0 64 64;" xml:space="preserve">
<g>
	<path d="M16.555,1L7,11.616V63h50V1H16.555z M16,4.606V11h-5.755L16,4.606z M55,61H9V13h9V3h37V61z"/>
	<rect x="39" y="5" width="14" height="2"/>
	<rect x="31" y="9" width="22" height="2"/>
	<path d="M49,15H35.974c-0.914-1.207-2.348-2-3.974-2s-3.061,0.793-3.974,2H15c-1.103,0-2,0.897-2,2v2c0,1.103,0.897,2,2,2h2.656
		l-2.4,8H13v1c0,2.757,2.243,5,5,5h4c2.757,0,5-2.243,5-5v-1h-2.256l-2.4-8h5.681c0.279,0.369,0.606,0.695,0.974,0.974V49h-1
		c-2.757,0-5,2.243-5,5v1h18v-1c0-2.757-2.243-5-5-5h-1V21.974c0.369-0.279,0.695-0.606,0.974-0.974h5.681l-2.4,8H37v1
		c0,2.757,2.243,5,5,5h4c2.757,0,5-2.243,5-5v-1h-2.256l-2.4-8H49c1.103,0,2-0.897,2-2v-2C51,15.897,50.103,15,49,15z M22,33h-4
		c-1.304,0-2.416-0.836-2.829-2h9.657C24.416,32.164,23.304,33,22,33z M22.656,29h-5.312l2.4-8h0.512L22.656,29z M15,19v-2h12.101
		C27.035,17.323,27,17.658,27,18s0.035,0.677,0.101,1H15z M38.829,53H25.172c0.413-1.164,1.525-2,2.829-2h8
		C37.304,51,38.416,51.836,38.829,53z M33,49h-2V22.899C31.323,22.965,31.658,23,32,23s0.677-0.035,1-0.101V49z M32,21
		c-1.654,0-3-1.346-3-3s1.346-3,3-3s3,1.346,3,3S33.654,21,32,21z M46,33h-4c-1.304,0-2.416-0.836-2.829-2h9.657
		C48.416,32.164,47.304,33,46,33z M46.656,29h-5.312l2.4-8h0.512L46.656,29z M49,19H36.899C36.965,18.677,37,18.342,37,18
		s-0.035-0.677-0.101-1H49V19z"/>
</g>
</svg>
