<svg width="96" height="96" xmlns="http://www.w3.org/2000/svg" xmlns:xlink="http://www.w3.org/1999/xlink" xml:space="preserve" overflow="hidden"><g transform="translate(-60 -264)"><path d="M143.89 310.38C143.52 315.597 141.452 320.55 138 324.48L140.62 327.48C150.226 317.03 150.492 301.045 141.24 290.28L138.24 292.86C142.377 297.717 144.41 304.021 143.89 310.38Z"/><path d="M135.91 309.78C135.678 312.879 134.541 315.842 132.64 318.3L135.28 321.37C141.589 313.903 141.504 302.949 135.08 295.58L132.08 298.16C134.854 301.368 136.232 305.551 135.91 309.78Z"/><path d="M74.43 327.52 77.05 324.52C69.1275 315.518 69.0252 302.061 76.81 292.94L73.81 290.36C64.5576 301.125 64.824 317.11 74.43 327.56Z"/><path d="M75.1 310.08C75.3978 314.239 77.0165 318.195 79.72 321.37L82.36 318.3C77.7334 312.306 77.9719 303.882 82.93 298.16L79.93 295.58C76.4131 299.554 74.6688 304.791 75.1 310.08Z"/><path d="M109.82 341.2 109.82 331.77C118.662 330.606 125.271 323.068 125.27 314.15L125.27 306.42 120.64 306.42 120.64 314.15C120.64 321.407 114.757 327.29 107.5 327.29 100.243 327.29 94.36 321.407 94.36 314.15L94.36 306.42 89.73 306.42 89.73 314.15C89.7289 323.068 96.3382 330.606 105.18 331.77L105.18 341.2 89 341.2 89 345.83 126.1 345.83 126.1 341.2Z"/><path d="M107.5 324.2C113.023 324.2 117.5 319.723 117.5 314.2 117.5 314.183 117.5 314.167 117.5 314.15L109.82 314.15 109.82 311.06 117.55 311.06 117.55 306.42 109.82 306.42 109.82 303.33 117.55 303.33 117.55 298.7 109.82 298.7 109.82 295.61 117.55 295.61 117.55 291 109.82 291 109.82 287.88 117.55 287.88C117.55 282.329 113.05 277.83 107.5 277.83 101.95 277.83 97.45 282.329 97.45 287.88L97.45 314.15C97.4223 319.673 101.877 324.172 107.4 324.2 107.433 324.2 107.467 324.2 107.5 324.2Z"/></g></svg>