<svg width="96" height="96" xmlns="http://www.w3.org/2000/svg" xmlns:xlink="http://www.w3.org/1999/xlink" xml:space="preserve" overflow="hidden"><defs><clipPath id="clip0"><rect x="592" y="312" width="96" height="96"/></clipPath></defs><g clip-path="url(#clip0)" transform="translate(-592 -312)"><path d="M672.4 351.82C669.4 350.33 665.84 350.29 662.51 350.82 661.524 348.751 660.31 346.799 658.89 345 661.72 342.61 665.24 340.46 668.46 340.61 669.565 340.657 670.498 339.8 670.545 338.695 670.592 337.59 669.735 336.657 668.63 336.61L668.17 336.61C663.71 336.61 659.41 339.31 656.17 342.04 655.57 341.46 654.95 340.91 654.31 340.4 654.373 340.003 654.407 339.602 654.41 339.2 654.41 334.2 650.41 329.98 644.88 328.29 645.023 327.928 645.222 327.591 645.47 327.29 646.57 325.91 648.69 325.29 651.77 325.55 652.875 325.627 653.833 324.795 653.91 323.69 653.987 322.585 653.155 321.627 652.05 321.55 647.57 321.24 644.3 322.33 642.33 324.81 641.677 325.639 641.191 326.586 640.9 327.6 640.46 327.6 640.01 327.55 639.56 327.55 638.794 327.554 638.03 327.604 637.27 327.7 636.982 326.649 636.485 325.666 635.81 324.81 633.81 322.33 630.57 321.23 626.09 321.55 624.985 321.63 624.155 322.59 624.235 323.695 624.315 324.8 625.275 325.63 626.38 325.55 629.44 325.32 631.57 325.91 632.67 327.29 632.982 327.69 633.216 328.144 633.36 328.63 628.26 330.48 624.71 334.53 624.71 339.25 624.714 339.824 624.775 340.397 624.89 340.96 624.31 341.46 623.75 341.96 623.2 342.54 619.85 339.64 615.2 336.66 610.48 336.87 609.375 336.917 608.518 337.85 608.565 338.955 608.612 340.06 609.545 340.917 610.65 340.87 613.98 340.73 617.65 343.07 620.57 345.58 619.256 347.332 618.127 349.216 617.2 351.2 613.71 350.55 609.89 350.5 606.72 352.08 605.716 352.541 605.276 353.729 605.737 354.732 606.198 355.736 607.386 356.176 608.39 355.715 608.427 355.698 608.464 355.679 608.5 355.66 610.788 354.715 613.309 354.485 615.73 355 614.564 358.635 613.98 362.432 614 366.25 613.973 371.802 615.251 377.283 617.73 382.25 614.9 384.25 612.29 386.84 611.2 390.1 610.844 391.149 611.406 392.289 612.455 392.645 613.504 393.001 614.644 392.439 615 391.39 615.72 389.21 617.59 387.31 619.77 385.74 624.48 392.79 631.77 397.3 640 397.3 648.23 397.3 655.26 392.89 660 386 661.867 387.294 663.317 389.104 664.17 391.21 664.526 392.268 665.672 392.836 666.73 392.48 667.788 392.124 668.356 390.978 668 389.92 666.822 386.914 664.762 384.334 662.09 382.52 664.675 377.487 666.016 371.908 666 366.25 666.008 362.31 665.373 358.395 664.12 354.66 666.326 354.268 668.598 354.525 670.66 355.4 671.646 355.892 672.844 355.494 673.34 354.51 673.827 353.519 673.418 352.32 672.427 351.833 672.418 351.829 672.409 351.824 672.4 351.82ZM622.85 369.9C620.85 369.9 619.25 367.9 619.25 365.4 619.25 362.9 620.86 360.9 622.85 360.9 624.84 360.9 626.45 362.9 626.45 365.4 626.45 367.9 624.84 369.9 622.85 369.9ZM631.66 382.9C630.06 384.08 628.05 384.07 627.16 382.9 626.27 381.73 626.85 379.77 628.44 378.59 630.03 377.41 632.05 377.42 632.94 378.59 633.83 379.76 633.26 381.69 631.66 382.87ZM631 355C629.067 355 627.5 353.433 627.5 351.5 627.5 349.567 629.067 348 631 348 632.933 348 634.5 349.567 634.5 351.5 634.5 353.433 632.933 355 631 355ZM642 393.18C640.668 393.26 639.332 393.26 638 393.18L638 341 642 341ZM646.3 351.5C646.3 349.567 647.867 348 649.8 348 651.733 348 653.3 349.567 653.3 351.5 653.3 353.433 651.733 355 649.8 355 647.867 355.028 646.278 353.483 646.25 351.55 646.25 351.534 646.25 351.517 646.25 351.5ZM653.59 382.84C652.71 384.04 650.69 384.05 649.09 382.84 647.49 381.63 646.92 379.72 647.81 378.53 648.7 377.34 650.71 377.32 652.31 378.53 653.91 379.74 654.43 381.65 653.54 382.84ZM657.85 369.9C655.85 369.9 654.25 367.9 654.25 365.4 654.25 362.9 655.86 360.9 657.85 360.9 659.84 360.9 661.45 362.9 661.45 365.4 661.45 367.9 659.84 369.9 657.85 369.9Z" fill="#C00000"/></g></svg>