<svg width="96" height="96" xmlns="http://www.w3.org/2000/svg" xmlns:xlink="http://www.w3.org/1999/xlink" xml:space="preserve" overflow="hidden"><defs><clipPath id="clip0"><rect x="232" y="54" width="96" height="96"/></clipPath></defs><g clip-path="url(#clip0)" transform="translate(-232 -54)"><path d="M308 86 308 94 300 94 300 86 308 86ZM252 122 260 122 260 130 252 130 252 122ZM272 86 272 94 264 94 264 86 272 86ZM284 86 284 94 276 94 276 86 284 86ZM296 106 288 106 288 98 296 98 296 106ZM300 106 300 98 308 98 308 106 300 106ZM300 118 300 110 308 110 308 118 300 118ZM276 122 284 122 284 130 276 130 276 122ZM272 122 272 130 264 130 264 122 272 122ZM264 110 272 110 272 118 264 118 264 110ZM260 110 260 118 252 118 252 110 260 110ZM260 98 260 106 252 106 252 98 260 98ZM272 106 264 106 264 98 272 98 272 106ZM276 106 276 98 284 98 284 106 276 106ZM284 118 276 118 276 110 284 110 284 118ZM288 118 288 110 296 110 296 118 288 118ZM296 86 296 94 288 94 288 86 296 86ZM246 80 246 136 314 136 314 80 246 80Z" /><path d="M246 68 314 68 314 76 246 76Z" /></g></svg>