<svg width="96" height="96" xmlns="http://www.w3.org/2000/svg" xmlns:xlink="http://www.w3.org/1999/xlink" xml:space="preserve" overflow="hidden"><defs><clipPath id="clip0"><rect x="412" y="65" width="96" height="96"/></clipPath></defs><g clip-path="url(#clip0)" transform="translate(-412 -65)"><path d="M497 124 497 98C497 91.4 491.6 86 485 86L427.2 86C426.3 86 425.4 86.4 424.8 87 423.9 88.1 423.8 89.7 424.7 90.8L434.2 103.1 438 138.3C438.2 139.8 439.5 141 441 141L475 141C476.5 141 477.8 139.8 478 138.3L482.3 96.5C482.4 95.1 483.6 94 485 94L485 94C487.2 94 489 95.8 489 98L490.5 118C490.8 121.4 493.6 124 497 124ZM433.1 92 476.7 92 475 109 440.8 109 440 101.7C439.9 101.2 439.7 100.6 439.4 100.2L433.1 92ZM464 125 464 129 452 129 452 125 464 125ZM452 119 452 115 464 115 464 119 452 119Z" /><path d="M452 99 464 99 464 103 452 103Z" /></g></svg>