<svg width="96" height="96" xmlns="http://www.w3.org/2000/svg" xmlns:xlink="http://www.w3.org/1999/xlink" xml:space="preserve" overflow="hidden"><defs><clipPath id="clip0"><rect x="979" y="310" width="96" height="96"/></clipPath></defs><g clip-path="url(#clip0)" transform="translate(-979 -310)"><path d="M1004 339 1004 364.5C1004 365.03 1004.21 365.539 1004.59 365.914L1007.67 369 1004.09 372.586C1003.71 372.961 1003.5 373.47 1003.5 374L1003.5 387.5C1003.51 393.296 1008.2 397.993 1014 398L1057 398C1062.52 398.006 1067 393.533 1067.01 388.01 1067.01 383.25 1063.66 379.147 1059 378.2L1059 351.5C1059 350.847 1058.68 350.235 1058.15 349.861L1054.93 347.609 1058.54 343.28C1059.08 342.626 1059.15 341.7 1058.71 340.971L1056.52 337.31 1058.41 335.41C1058.79 335.037 1059 334.53 1059 334L1059 329.5C1058.99 323.704 1054.3 319.007 1048.5 319L997.5 319C991.728 318.982 987.03 323.641 987 329.413 986.997 332.579 988.445 335.572 990.93 337.535 990.966 337.564 991.003 337.592 991.042 337.618 992.306 338.51 993.812 338.995 995.359 339.009ZM1001.57 335C1001.85 334.327 1002 333.605 1002 332.876 1002.02 329.608 999.393 326.94 996.126 326.917 996.084 326.916 996.042 326.916 996 326.917 994.895 326.917 994 327.812 994 328.917 994 330.022 994.895 330.917 996 330.917 997.069 330.882 997.964 331.721 997.999 332.79 998 332.819 998 332.847 998 332.876 997.95 333.651 997.477 334.335 996.77 334.656 995.669 335.195 994.361 335.082 993.37 334.361 991.872 333.155 991 331.336 991 329.413 991.024 325.823 993.954 322.932 997.544 322.957 1001.13 322.98 1004.02 325.91 1004 329.5L1004 335ZM1017 378.01C1015.74 377.952 1014.49 378.225 1013.37 378.803 1011.34 379.812 1010.05 381.862 1010 384.124 1009.98 387.392 1012.61 390.06 1015.87 390.083 1015.92 390.084 1015.96 390.084 1016 390.083 1017.1 390.083 1018 389.188 1018 388.083 1018 386.978 1017.1 386.083 1016 386.083 1014.93 386.118 1014.04 385.279 1014 384.21 1014 384.182 1014 384.153 1014 384.124 1014.05 383.349 1014.52 382.665 1015.23 382.344 1016.33 381.806 1017.64 381.922 1018.63 382.644 1020.13 383.848 1021 385.666 1021 387.587 1020.97 391.151 1018.06 394.02 1014.5 394L1014 394C1010.41 393.996 1007.5 391.088 1007.5 387.5L1007.5 374.829 1011.91 370.414C1012.69 369.633 1012.69 368.367 1011.91 367.586L1008 363.671 1008 329.5C1008 327.14 1007.21 324.849 1005.74 323L1048.5 323C1052.09 323.004 1055 325.912 1055 329.5L1055 333.171 1052.59 335.586C1051.94 336.235 1051.81 337.242 1052.29 338.029L1054.56 341.811 1050.46 346.72C1049.76 347.569 1049.87 348.83 1050.72 349.537 1050.76 349.573 1050.81 349.607 1050.85 349.639L1055 352.542 1055 378ZM1057 394 1022.76 394C1025.51 390.543 1025.75 385.714 1023.35 382L1057 382C1060.31 382 1063 384.686 1063 388 1063 391.314 1060.31 394 1057 394Z" /><path d="M1028 335 1045 335 1045 339 1028 339Z" /><path d="M1018 335 1024 335 1024 339 1018 339Z" /><path d="M1028 365 1045 365 1045 369 1028 369Z" /><path d="M1018 365 1024 365 1024 369 1018 369Z" /><path d="M1018 345 1035 345 1035 349 1018 349Z" /><path d="M1039 345 1045 345 1045 349 1039 349Z" /><path d="M1018 355 1045 355 1045 359 1018 359Z" /></g></svg>