<?xml version="1.0" encoding="utf-8"?>
<!-- Generator: Adobe Illustrator 19.2.1, SVG Export Plug-In . SVG Version: 6.00 Build 0)  -->
<svg version="1.1" id="Line" xmlns="http://www.w3.org/2000/svg" xmlns:xlink="http://www.w3.org/1999/xlink" x="0px" y="0px"
	 viewBox="0 0 32 32" enable-background="new 0 0 32 32" xml:space="preserve">
<path id="XMLID_245_" d="M16,19c1.654,0,3-1.346,3-3s-1.346-3-3-3s-3,1.346-3,3S14.346,19,16,19z M16,15c0.552,0,1,0.449,1,1
	s-0.448,1-1,1s-1-0.449-1-1S15.448,15,16,15z"/>
<path id="XMLID_248_" d="M5,23c7.322,0,14.654,0,22,0c0.553,0,1-0.448,1-1c0-4.648,0-8.112,0-12c0-0.552-0.447-1-1-1
	C19.678,9,12.346,9,5,9c-0.553,0-1,0.448-1,1c0,3.883,0,7.345,0,12C4,22.552,4.447,23,5,23z M26,21h-1.829
	c0.302-0.851,0.978-1.527,1.829-1.829V21z M26,11v1.829c-0.852-0.302-1.527-0.978-1.829-1.829H26z M6,11h1.829
	C7.527,11.851,6.852,12.527,6,12.829V11z M6,14.899C7.956,14.5,9.5,12.956,9.899,11h12.202c0.399,1.956,1.943,3.5,3.899,3.899v2.202
	C24.044,17.5,22.5,19.044,22.101,21H9.899C9.5,19.044,7.956,17.5,6,17.101V14.899z M6,19.171C6.852,19.473,7.527,20.149,7.829,21H6
	V19.171z"/>
<path id="XMLID_261_" d="M7.255,6.667C6.887,6.255,6.922,5.623,7.333,5.255C9.678,3.156,12.756,2,16,2
	c2.171,0,4.261,0.528,6.112,1.498c-0.261-0.785,0.049-1.272,0.571-1.447c0.529-0.177,1.091,0.109,1.265,0.632l1,3
	C25.165,6.329,24.667,7,24,7h-3c-0.553,0-1-0.448-1-1c0-0.466,0.325-0.839,0.755-0.951C19.297,4.366,17.677,4,16,4
	c-2.751,0-5.355,0.975-7.333,2.745C8.257,7.113,7.623,7.079,7.255,6.667z"/>
<path id="XMLID_266_" d="M24.669,26.745C22.324,28.844,19.246,30,16.002,30c-2.171,0-4.261-0.528-6.112-1.498
	c0.261,0.785-0.049,1.272-0.571,1.447c-0.529,0.176-1.092-0.114-1.265-0.632l-1-3C6.843,25.689,7.305,25,8.002,25h3
	c0.553,0,1,0.448,1,1c0,0.466-0.325,0.839-0.755,0.951C12.705,27.634,14.325,28,16.002,28c2.751,0,5.355-0.975,7.333-2.745
	c0.41-0.368,1.044-0.333,1.412,0.078S25.08,26.377,24.669,26.745z"/>
</svg>
