<svg width="96" height="96" xmlns="http://www.w3.org/2000/svg" xmlns:xlink="http://www.w3.org/1999/xlink" xml:space="preserve" overflow="hidden"><g transform="translate(-188 -51)"><path d="M236 131C218.4 131 204 116.6 204 99 204 81.4 218.4 67 236 67 253.6 67 268 81.4 268 99 268 116.6 253.6 131 236 131ZM236 61C215 61 198 78 198 99 198 120 215 137 236 137 257 137 274 120 274 99 274 78 257 61 236 61Z" /><path d="M238 79 234 79 234 99C234 99.6 234.2 100.1 234.6 100.4L248.7 114.5 251.5 111.7 238 98.2 238 79Z" /><path d="M238 73C238 74.1046 237.105 75 236 75 234.895 75 234 74.1046 234 73 234 71.8954 234.895 71 236 71 237.105 71 238 71.8954 238 73Z" /><path d="M238 125C238 126.105 237.105 127 236 127 234.895 127 234 126.105 234 125 234 123.895 234.895 123 236 123 237.105 123 238 123.895 238 125Z" /><path d="M212 99C212 100.105 211.105 101 210 101 208.895 101 208 100.105 208 99 208 97.8954 208.895 97 210 97 211.105 97 212 97.8954 212 99Z" /><path d="M264 99C264 100.105 263.105 101 262 101 260.895 101 260 100.105 260 99 260 97.8954 260.895 97 262 97 263.105 97 264 97.8954 264 99Z" /></g></svg>