<svg width="96" height="96" xmlns="http://www.w3.org/2000/svg" xmlns:xlink="http://www.w3.org/1999/xlink" xml:space="preserve" overflow="hidden"><defs><clipPath id="clip0"><rect x="1022" y="101" width="96" height="96"/></clipPath></defs><g clip-path="url(#clip0)" transform="translate(-1022 -101)"><path d="M1100 152C1097.2 152 1095 150.4 1095 148.5 1095 146.6 1097.2 145 1100 145 1102.8 145 1105 146.6 1105 148.5 1105 150.4 1102.8 152 1100 152ZM1095 163C1092.2 163 1090 161.4 1090 159.5 1090 157.6 1092.2 156 1095 156 1097.8 156 1100 157.6 1100 159.5 1100 161.4 1097.8 163 1095 163ZM1084 135C1081.2 135 1079 133.4 1079 131.5 1079 129.6 1081.2 128 1084 128 1086.8 128 1089 129.6 1089 131.5 1089 133.4 1086.8 135 1084 135ZM1084 169C1081.2 169 1079 167.4 1079 165.5 1079 163.6 1081.2 162 1084 162 1086.8 162 1089 163.6 1089 165.5 1089 167.4 1086.8 169 1084 169ZM1070 172C1067.2 172 1065 170.4 1065 168.5 1065 166.6 1067.2 165 1070 165 1072.8 165 1075 166.6 1075 168.5 1075 170.4 1072.8 172 1070 172ZM1064.6 131.6C1066.2 130 1068.3 129.7 1069.4 130.8 1070.5 131.9 1070.1 134 1068.6 135.6 1067 137.2 1064.9 137.5 1063.8 136.4 1062.6 135.3 1063 133.1 1064.6 131.6ZM1056 170C1053.2 170 1051 168.4 1051 166.5 1051 164.6 1053.2 163 1056 163 1058.8 163 1061 164.6 1061 166.5 1061 168.4 1058.8 170 1056 170ZM1095 135C1097.8 135 1100 136.6 1100 138.5 1100 140.4 1097.8 142 1095 142 1092.2 142 1090 140.4 1090 138.5 1090 136.6 1092.2 135 1095 135ZM1070 121C1047.3 121 1050.9 129.9 1053 132L1058 137C1061.2 140.3 1057.3 144 1053.6 142.4L1041.1 137C1032.3 133.2 1030 143.9 1030 149 1030 164.5 1047.9 177 1070 177 1092.1 177 1110 164.5 1110 149 1110 133.5 1092.1 121 1070 121Z" /></g></svg>