<svg width="96" height="96" xmlns="http://www.w3.org/2000/svg" xmlns:xlink="http://www.w3.org/1999/xlink" xml:space="preserve" overflow="hidden"><defs><clipPath id="clip0"><rect x="235" y="45" width="96" height="96"/></clipPath></defs><g clip-path="url(#clip0)" transform="translate(-235 -45)"><path d="M318.827 88.873C318.018 88.8759 317.21 88.9398 316.411 89.064L311.833 86.647C311.867 87.7619 312.104 88.8613 312.533 89.891 309.799 90.591 307.224 91.417 305.476 91.417L301.025 88.873C301.147 90.392 301.468 91.8884 301.979 93.324 301.468 94.7593 301.147 96.2553 301.025 97.774L305.476 95.231C307.224 95.231 309.799 96.058 312.533 96.757 312.104 97.7864 311.867 98.8854 311.833 100L316.411 97.584C317.21 97.7079 318.018 97.7714 318.827 97.774 322.864 97.774 329 94.754 329 93.324 329 91.894 322.864 88.873 318.827 88.873ZM324.227 92.688C323.876 92.688 323.591 92.4033 323.591 92.052 323.591 91.7007 323.876 91.416 324.227 91.416 324.578 91.416 324.863 91.7007 324.863 92.052 324.862 92.4015 324.581 92.6853 324.231 92.688Z" /><path d="M303.985 84.232C297.467 76.2176 287.686 71.5647 277.355 71.564 276.888 71.564 276.429 71.599 275.967 71.617L261.7 63C261.811 66.8844 262.475 70.7331 263.672 74.43 258.246 76.802 253.519 80.526 249.943 85.246L237.024 76.8C237.024 82.969 239.964 92.5 239.964 92.5 239.964 92.5 237.024 102.033 237.024 108.2L249.943 99.752C253.519 104.473 258.245 108.197 263.671 110.57 262.474 114.267 261.81 118.116 261.7 122L275.968 113.383C276.43 113.401 276.889 113.436 277.356 113.436 287.122 113.434 296.424 109.267 302.927 101.981L291.024 93ZM289.524 85.442C288.696 85.442 288.024 84.7704 288.024 83.942 288.024 83.1136 288.696 82.442 289.524 82.442 290.352 82.442 291.024 83.1136 291.024 83.942 291.024 84.7704 290.352 85.442 289.524 85.442Z" /></g></svg>