<svg width="330" height="330" xmlns="http://www.w3.org/2000/svg" xmlns:xlink="http://www.w3.org/1999/xlink" xml:space="preserve" overflow="hidden"><defs><clipPath id="clip0"><rect x="1570" y="969" width="330" height="330"/></clipPath></defs><g clip-path="url(#clip0)" transform="translate(-1570 -969)"><path d="M1755.62 1168.38C1799.21 1168.38 1834.69 1131.35 1834.69 1085.88 1834.69 1040.4 1799.21 1003.38 1755.62 1003.38L1666.25 1003.38 1666.25 1147.75 1645.62 1147.75 1645.62 1168.38 1666.25 1168.38 1666.25 1189 1645.62 1189 1645.62 1209.62 1666.25 1209.62 1666.25 1268.06 1686.87 1268.06 1686.87 1209.62 1769.37 1209.62 1769.37 1189 1686.87 1189 1686.87 1168.38ZM1686.87 1024 1755.62 1024C1787.83 1024 1814.06 1051.78 1814.06 1085.88 1814.06 1119.98 1787.83 1147.75 1755.62 1147.75L1686.87 1147.75Z" /><path d="M1764.5 1155.5 1796.12 1265.68" stroke="#595959" stroke-width="20.625" stroke-miterlimit="8"  fill-rule="evenodd"/><path d="M1650.5 1201.5 1833.81 1201.5" stroke="#595959" stroke-width="20.625" stroke-miterlimit="8"  fill-rule="evenodd"/><path d="M1647.5 1085.5 1815.86 1085.5" stroke="#595959" stroke-width="20.625" stroke-miterlimit="8"  fill-rule="evenodd"/></g></svg>