<svg width="96" height="96" xmlns="http://www.w3.org/2000/svg" xmlns:xlink="http://www.w3.org/1999/xlink" xml:space="preserve" overflow="hidden"><defs><clipPath id="clip0"><rect x="229" y="385" width="96" height="96"/></clipPath></defs><g clip-path="url(#clip0)" transform="translate(-229 -385)"><path d="M275 415.1 275 419.1C275.7 419.1 276.3 419 277 419 277.7 419 278.3 419 279 419.1L279 415.1C282.9 415.3 286.6 416.1 290 417.4L288.5 421C289.8 421.5 291 422 292.2 422.6L293.7 418.9C295.6 419.8 297.3 420.9 299 422.1L303.3 417.8C296 412.3 286.9 409 277 409 252.7 409 233 428.7 233 453L233 457 239 457 239 453C239 448.9 239.7 444.9 240.9 441.2L244.6 442.7C245 441.4 245.5 440.2 246 439L242.3 437.5C243.8 434.1 245.9 430.9 248.3 428.2L251.1 431C252 430 252.9 429 253.9 428.1L251.1 425.3C253.8 422.8 256.9 420.6 260.3 418.9L261.8 422.6C263 422 264.2 421.5 265.5 421L264 417.3C267.4 416 271.1 415.3 275 415.1Z" /><path d="M313.1 427.8 308.8 432.1C309.9 433.8 310.9 435.6 311.7 437.4L308 439C308.5 440.2 309 441.5 309.4 442.7L313.1 441.2C314.3 444.9 315 448.9 315 453L315 457 321 457 321 453C321 443.6 318.1 435 313.1 427.8Z" /><path d="M274.2 451.2C274 451.3 273.9 451.5 273.7 451.7 272.3 453.4 272.5 455.9 274.2 457.4 275.9 458.8 278.4 458.6 279.9 456.9L311 420 274.2 451.2Z" /></g></svg>