<svg width="96" height="96" xmlns="http://www.w3.org/2000/svg" xmlns:xlink="http://www.w3.org/1999/xlink" xml:space="preserve" overflow="hidden"><g transform="translate(-495 -97)"><path d="M571 119 571 155 515 155 515 119ZM579 157 577 157 577 116 579 116C580.105 116 581 115.105 581 114 581 112.895 580.105 112 579 112L545 112 545 110C545 108.895 544.105 108 543 108 541.895 108 541 108.895 541 110L541 112 507 112C505.895 112 505 112.895 505 114 505 115.105 505.895 116 507 116L509 116 509 157 507 157C505.895 157 505 157.895 505 159 505 160.105 505.895 161 507 161L537.54 161 522.14 176.4C521.359 177.19 521.365 178.464 522.155 179.245 522.945 180.026 524.219 180.02 525 179.23L541 163.23 541 181C541 182.105 541.895 183 543 183 544.105 183 545 182.105 545 181L545 163.2 561 179.2C561.781 179.982 563.049 179.982 563.83 179.2 564.612 178.419 564.612 177.151 563.83 176.37L548.46 161 579 161C580.105 161 581 160.105 581 159 581 157.895 580.105 157 579 157Z" /><path d="M544 128 561 128 561 132 544 132Z" /><path d="M537.8 126.6 535 123.8 528.4 130.4 525.8 127.8 523 130.6 528.4 136 537.8 126.6Z" /><path d="M544 141 561 141 561 145 544 145Z" /><path d="M537.8 139.6 535 136.8 528.4 143.4 525.8 140.8 523 143.6 528.4 149 537.8 139.6Z" /></g></svg>