<svg width="96" height="96" xmlns="http://www.w3.org/2000/svg" xmlns:xlink="http://www.w3.org/1999/xlink" xml:space="preserve" overflow="hidden"><defs><clipPath id="clip0"><rect x="666" y="167" width="96" height="96"/></clipPath></defs><g clip-path="url(#clip0)" transform="translate(-666 -167)"><path d="M685 180 679 180 679 250 748 250 748 244 685 244 685 180Z" /><path d="M691 180 706 180 706 238 691 238Z" /><path d="M712 200 727 200 727 238 712 238Z" /><path d="M733 218 748 218 748 238 733 238Z" /><path d="M741.54 203.72 717.41 179.59 714.59 182.41 738.72 206.54 733.26 212 747 212 747 198.26 741.54 203.72Z" /></g></svg>