<svg width="96" height="96" xmlns="http://www.w3.org/2000/svg" xmlns:xlink="http://www.w3.org/1999/xlink" xml:space="preserve" overflow="hidden"><defs><clipPath id="clip0"><rect x="745" y="304" width="96" height="96"/></clipPath></defs><g clip-path="url(#clip0)" transform="translate(-745 -304)"><path d="M801.8 314.5 805.8 314.5 805.8 326.5 801.8 326.5Z" /><path d="M827.201 324.992 818.715 333.477 815.887 330.649 824.372 322.163Z" /><path d="M822.8 343.5 834.8 343.5 834.8 347.5 822.8 347.5Z" /><path d="M827.18 365.984 824.352 368.812 815.867 360.327 818.695 357.498Z" /><path d="M772.8 343.5 784.8 343.5 784.8 347.5 772.8 347.5Z" /><path d="M791.794 330.699 788.966 333.528 780.481 325.042 783.309 322.214Z" /><path d="M809.8 370.5C809.3 370.5 808.8 370.5 808.3 370.6 808.3 370.6 808.3 370.5 808.3 370.5 808.3 366.7 806.5 363 803.3 360.8 800.2 358.5 796.2 357.9 792.5 359.1 789.4 353.3 782.7 350.3 776.3 351.9 769.9 353.4 765.4 359.1 765.2 365.7 761 364.9 756.5 366.5 753.7 370 751 373.5 750.4 378.3 752.2 382.3 754 386.4 757.9 389.1 762.4 389.4L810.4 389.5C815.6 389.4 819.8 385 819.6 379.7 819.5 374.5 815.1 370.4 809.8 370.5Z" /><path d="M789.6 350.3C791.4 351.4 793.1 352.9 794.4 354.6 799.6 354 804.7 355.9 808.2 359.8 814 358 818.2 352.9 818.7 346.8 819.2 340.7 816 334.9 810.6 332.1 805.2 329.3 798.6 330.1 794 334.1 789.4 338.1 787.7 344.5 789.6 350.3L789.6 350.3Z" /></g></svg>