<svg width="96" height="96" xmlns="http://www.w3.org/2000/svg" xmlns:xlink="http://www.w3.org/1999/xlink" xml:space="preserve" overflow="hidden"><g transform="translate(-92 -86)"><path d="M136.981 93.05 136.981 167.809 128.081 158.914C126.921 157.754 125.041 157.754 123.881 158.914 122.721 160.074 122.721 161.954 123.881 163.114L137.881 177.1C138.986 178.26 140.821 178.305 141.981 177.2 142.015 177.168 142.048 177.134 142.081 177.1L156.071 163.112C157.231 162.007 157.276 160.172 156.171 159.012 156.138 158.978 156.105 158.945 156.071 158.912 154.966 157.752 153.131 157.707 151.971 158.812 151.937 158.844 151.904 158.878 151.871 158.912L142.976 167.807 142.976 93.05C142.976 91.3932 141.633 90.05 139.976 90.05 138.319 90.05 136.976 91.3932 136.976 93.05Z" /></g></svg>