<svg width="96" height="96" xmlns="http://www.w3.org/2000/svg" xmlns:xlink="http://www.w3.org/1999/xlink" xml:space="preserve" overflow="hidden"><defs><clipPath id="clip0"><rect x="196" y="499" width="96" height="96"/></clipPath></defs><g clip-path="url(#clip0)" transform="translate(-196 -499)"><path d="M220 538.5 268 538.5 268 544.5 220 544.5Z" /><path d="M215 544.5 216 544.5 216 538.5 215 538.5C213.3 538.5 212 539.8 212 541.5 212 543.2 213.3 544.5 215 544.5" /><path d="M276 541.5C276 539.8 274.7 538.5 273 538.5L272 538.5 272 544.5 273 544.5C274.7 544.5 276 543.2 276 541.5" /><path d="M274 548.5 214 548.5C211.8 548.5 210 550.3 210 552.5L210 581.5C210 583.7 211.8 585.5 214 585.5L274 585.5C276.2 585.5 278 583.7 278 581.5L278 552.5C278 550.3 276.2 548.5 274 548.5M262 555.5C262 559.4 253.9 562.5 244 562.5 234.1 562.5 226 559.4 226 555.5L262 555.5ZM216 573.5C214.9 573.5 214 572.6 214 571.5 214 570.4 214.9 569.5 216 569.5 217.1 569.5 218 570.4 218 571.5 218 572.6 217.1 573.5 216 573.5M220 580.5C218.9 580.5 218 579.6 218 578.5 218 577.4 218.9 576.5 220 576.5 221.1 576.5 222 577.4 222 578.5 222 579.6 221.1 580.5 220 580.5M224 573.5C222.9 573.5 222 572.6 222 571.5 222 570.4 222.9 569.5 224 569.5 225.1 569.5 226 570.4 226 571.5 226 572.6 225.1 573.5 224 573.5M228 580.5C226.9 580.5 226 579.6 226 578.5 226 577.4 226.9 576.5 228 576.5 229.1 576.5 230 577.4 230 578.5 230 579.6 229.1 580.5 228 580.5M232 573.5C230.9 573.5 230 572.6 230 571.5 230 570.4 230.9 569.5 232 569.5 233.1 569.5 234 570.4 234 571.5 234 572.6 233.1 573.5 232 573.5M236 580.5C234.9 580.5 234 579.6 234 578.5 234 577.4 234.9 576.5 236 576.5 237.1 576.5 238 577.4 238 578.5 238 579.6 237.1 580.5 236 580.5M240 573.5C238.9 573.5 238 572.6 238 571.5 238 570.4 238.9 569.5 240 569.5 241.1 569.5 242 570.4 242 571.5 242 572.6 241.1 573.5 240 573.5M244 580.5C242.9 580.5 242 579.6 242 578.5 242 577.4 242.9 576.5 244 576.5 245.1 576.5 246 577.4 246 578.5 246 579.6 245.1 580.5 244 580.5M248 573.5C246.9 573.5 246 572.6 246 571.5 246 570.4 246.9 569.5 248 569.5 249.1 569.5 250 570.4 250 571.5 250 572.6 249.1 573.5 248 573.5M252 580.5C250.9 580.5 250 579.6 250 578.5 250 577.4 250.9 576.5 252 576.5 253.1 576.5 254 577.4 254 578.5 254 579.6 253.1 580.5 252 580.5M256 573.5C254.9 573.5 254 572.6 254 571.5 254 570.4 254.9 569.5 256 569.5 257.1 569.5 258 570.4 258 571.5 258 572.6 257.1 573.5 256 573.5M260 580.5C258.9 580.5 258 579.6 258 578.5 258 577.4 258.9 576.5 260 576.5 261.1 576.5 262 577.4 262 578.5 262 579.6 261.1 580.5 260 580.5M264 573.5C262.9 573.5 262 572.6 262 571.5 262 570.4 262.9 569.5 264 569.5 265.1 569.5 266 570.4 266 571.5 266 572.6 265.1 573.5 264 573.5M268 580.5C266.9 580.5 266 579.6 266 578.5 266 577.4 266.9 576.5 268 576.5 269.1 576.5 270 577.4 270 578.5 270 579.6 269.1 580.5 268 580.5M272 573.5C270.9 573.5 270 572.6 270 571.5 270 570.4 270.9 569.5 272 569.5 273.1 569.5 274 570.4 274 571.5 274 572.6 273.1 573.5 272 573.5" /><path d="M224 512.5 250 512.5 250 527.5 264 527.5 264 533.5 268 533.5 268 521.7 255.9 508.5 220 508.5 220 533.5 224 533.5 224 512.5ZM254 512.5 264 523.5 254 523.5 254 512.5Z" /></g></svg>