<svg width="96" height="96" xmlns="http://www.w3.org/2000/svg" xmlns:xlink="http://www.w3.org/1999/xlink" xml:space="preserve" overflow="hidden"><defs><clipPath id="clip0"><rect x="592" y="312" width="96" height="96"/></clipPath></defs><g clip-path="url(#clip0)" transform="translate(-592 -312)"><path d="M617 383.1C619 385.1 619 388.2 617 390.2L608.5 393 607 391.5 609.8 383C611.9 381.1 615 381.1 617 383.1ZM656.3 330.9 606.3 381 600 400 619.1 393.7 669.1 343.7" /><path d="M678.9 328.2 671.8 321.1C670.2 319.5 667.7 319.5 666.1 321.1L659.1 328.1 671.8 340.8 678.8 333.8C680.5 332.3 680.5 329.8 678.9 328.2Z" /></g></svg>