<svg width="96" height="96" xmlns="http://www.w3.org/2000/svg" xmlns:xlink="http://www.w3.org/1999/xlink" xml:space="preserve" overflow="hidden"><defs><clipPath id="clip0"><rect x="172" y="75" width="96" height="96"/></clipPath></defs><g clip-path="url(#clip0)" transform="translate(-172 -75)"><path d="M241 141 241 122.823 217.175 135.177 217.175 122.823 193.352 135.177 190.7 99 183.646 99 181 135.177 181 159 259 159 259 141ZM198.646 152.823 188.058 152.823 188.058 144.882 198.646 144.882ZM216.293 152.823 205.705 152.823 205.705 144.882 216.293 144.882ZM233.94 152.823 223.352 152.823 223.352 144.882 233.94 144.882Z" /><path d="M203.2 89.487C202.472 90.1598 201.349 90.1598 200.621 89.487 199.082 88.0463 197.045 87.2578 194.937 87.287L194.194 87.302C189.326 87.1748 185.271 91.008 185.124 95.876L185.124 97 189.184 97 189.184 96.352C189.142 94.1593 190.858 92.334 193.049 92.241L193.6 92.2C195.267 91.9913 196.941 92.5297 198.174 93.671L201.051 96.397C202.524 97.7649 204.519 98.4232 206.517 98.2 206.638 99.4428 207.207 100.599 208.117 101.454 210.506 103.574 214.122 103.501 216.424 101.287 216.769 100.96 217.072 100.593 217.329 100.193 219.921 100.947 222.718 100.274 224.683 98.423 227.374 96.0475 227.63 91.9399 225.255 89.2484 225.141 89.1193 225.022 88.9947 224.898 88.875 221.994 86.2975 217.597 86.3846 214.798 89.075 214.063 89.7374 212.947 89.7374 212.212 89.075 209.787 86.8332 206.045 86.8332 203.62 89.075Z" /></g></svg>