<svg width="96" height="96" xmlns="http://www.w3.org/2000/svg" xmlns:xlink="http://www.w3.org/1999/xlink" xml:space="preserve" overflow="hidden"><defs><clipPath id="clip0"><rect x="239" y="158" width="96" height="96"/></clipPath></defs><g clip-path="url(#clip0)" transform="translate(-239 -158)"><path d="M272.753 196.7C271.078 195.095 271.345 192.1 273.353 190 275.361 187.9 278.342 187.508 280.017 189.112 281.692 190.716 281.426 193.712 279.417 195.812 277.408 197.912 274.429 198.308 272.753 196.7Z" /><path d="M268.167 182.515C268.896 183.213 268.921 184.37 268.223 185.099 267.526 185.827 266.369 185.853 265.64 185.155 264.911 184.457 264.886 183.3 265.584 182.572 266.282 181.843 267.438 181.818 268.167 182.515Z" /><path d="M313 218C313.009 216.201 311.558 214.736 309.759 214.727 309.15 214.724 308.553 214.892 308.035 215.211L294.044 223.211C294.233 224.121 294.227 225.061 294.027 225.969 293.293 229.008 290.553 231.134 287.427 231.091L272.909 231.091 272.909 227.818 287.636 227.818C289.443 227.85 290.934 226.41 290.966 224.603 290.997 222.795 289.558 221.305 287.75 221.273 287.712 221.272 287.674 221.272 287.636 221.273L268 221.273C266.635 221.272 265.298 221.653 264.138 222.373L241 233.545 252.455 245C257.747 239.707 264.625 237.636 272.091 237.636L287.383 237.636C288.08 237.635 288.758 237.413 289.319 237L311.792 220.52C312.553 219.905 312.997 218.979 313 218Z" /><path d="M267 168.007 289.054 189.121 285.48 191.237 268.689 175.162 265.574 175.282 258.3 182.879 258.288 185.97 284.106 210.687 287.187 210.547 294.461 202.949 294.496 199.868 294.48 199.853 298.055 197.738 301.672 201.201 285.767 217.815 251.095 184.621 267 168.007Z" /><path d="M283.888 195.084 296.022 187.9C296.179 187.087 295.647 186.3 294.833 186.143 294.682 186.114 294.528 186.108 294.375 186.126L290.837 186.542 279.668 175.816 291.168 171.727C292.148 171.378 293.212 171.343 294.212 171.627L305.317 175.338C312.134 177.086 318.926 176.833 325.146 173.387L333 187.56 310.455 191.437 310.446 191.437 307.674 191.914 307.674 191.905 301.143 193.005 287.453 201.105C285.789 202.089 283.643 201.538 282.659 199.874 281.674 198.211 282.225 196.064 283.889 195.08Z" /></g></svg>