<svg id="Layer_1" data-name="Layer 1" xmlns="http://www.w3.org/2000/svg" viewBox="0 0 512 512"><defs><style>.cls-1{fill-rule:evenodd;}</style></defs><title>a</title><path class="cls-1" d="M450.566,104.5a5.33,5.33,0,1,1-3.771,1.561A5.317,5.317,0,0,1,450.566,104.5ZM410.708,75.281a5.33,5.33,0,1,0-3.772-1.561A5.319,5.319,0,0,0,410.708,75.281Zm-24.27,58.806a62.51,62.51,0,1,1,44.2,18.307A62.306,62.306,0,0,1,386.438,134.087Zm75.947-36.078a16.712,16.712,0,1,0,4.9,11.819A16.657,16.657,0,0,0,462.385,98.009Zm-54.186,18.8a5.667,5.667,0,1,0,9.826,5.648l35.05-60.706a5.667,5.667,0,1,0-9.826-5.647ZM393.992,69.949a16.719,16.719,0,1,0,4.9-11.82A16.659,16.659,0,0,0,393.992,69.949ZM211.49,199.136a62.946,62.946,0,1,1-18.436,44.508A62.748,62.748,0,0,1,211.49,199.136Zm56.224,60.519a9.5,9.5,0,0,1-6.55,9.264,15.469,15.469,0,0,1-10.327,0,9.5,9.5,0,0,1-6.552-9.264,5.692,5.692,0,0,0-11.384,0c0,10.39,6.15,17.034,14.022,19.936a25.785,25.785,0,0,0,3.385.986v4.8a5.692,5.692,0,0,0,11.383,0v-4.8a25.673,25.673,0,0,0,3.385-.985c7.872-2.9,14.022-9.546,14.022-19.936,0-29.743-34.813-14.483-34.813-32.02a9.5,9.5,0,0,1,6.552-9.263,15.475,15.475,0,0,1,10.327,0,9.5,9.5,0,0,1,6.55,9.264,5.692,5.692,0,0,0,11.384,0c0-10.389-6.15-17.033-14.022-19.935a25.526,25.526,0,0,0-3.385-.986v-4.8a5.692,5.692,0,0,0-11.383,0v4.8a25.482,25.482,0,0,0-3.385.986c-7.872,2.9-14.022,9.546-14.022,19.935C232.9,257.3,267.714,242.015,267.714,259.655ZM60.235,447.7H13.165a5.692,5.692,0,1,0,0,11.384h47.07a5.692,5.692,0,1,0,0-11.384Zm0-36.913H13.165a5.692,5.692,0,1,0,0,11.383h47.07a5.692,5.692,0,1,0,0-11.383Zm0,73.828H13.165a5.692,5.692,0,1,0,0,11.383h47.07a5.692,5.692,0,1,0,0-11.383ZM350.1,440.809a5.692,5.692,0,0,0,0,11.383h85.18a5.692,5.692,0,0,0,0-11.383Zm148.738,0H459.643a5.692,5.692,0,1,0,0,11.383h39.192a5.692,5.692,0,1,0,0-11.383ZM397.468,402.693a5.69,5.69,0,0,0,5.691,5.69h95.676a5.691,5.691,0,1,0,0-11.382H403.159A5.691,5.691,0,0,0,397.468,402.693Zm101.367,81.924H350.1a5.692,5.692,0,0,0,0,11.383H498.835a5.692,5.692,0,1,0,0-11.383ZM130.821,237.953h51.065a74.347,74.347,0,0,1,68.422-68.422V118.466A125.308,125.308,0,0,0,130.821,237.953ZM347.3,329.476l-38.754-33.259a74.332,74.332,0,0,1-126.655-46.881H130.821a125.31,125.31,0,0,0,213.786,82.915Q345.972,330.885,347.3,329.476Zm-16.966-85.832a74,74,0,0,1-14.391,43.962l38.755,33.259a125.311,125.311,0,0,0-93-202.4v51.065a74.337,74.337,0,0,1,68.638,74.113ZM60.235,52.913H13.165a5.692,5.692,0,1,0,0,11.383h47.07a5.692,5.692,0,1,0,0-11.383Zm0-36.913H13.165a5.691,5.691,0,1,0,0,11.382h47.07a5.691,5.691,0,1,0,0-11.382Zm0,73.827H13.165a5.692,5.692,0,1,0,0,11.383h47.07a5.692,5.692,0,1,0,0-11.383ZM185.759,374.6l-60.584,73.124H86.747a5.67,5.67,0,0,0,0,11.339H127.44a5.677,5.677,0,0,0,4.8-2.046l62.279-75.169a5.685,5.685,0,0,0-8.76-7.247ZM86.747,64.3h18.245l61.625,60.8a5.676,5.676,0,0,0,7.96-8.093L111.594,54.865a5.679,5.679,0,0,0-4.291-1.952H86.747a5.692,5.692,0,0,0,0,11.383Z"/></svg>