<svg width="96" height="96" xmlns="http://www.w3.org/2000/svg" xmlns:xlink="http://www.w3.org/1999/xlink" xml:space="preserve" overflow="hidden"><g transform="translate(-592 -312)"><path d="M665.044 336.861C663.026 335.987 660.857 335.515 658.659 335.472 657.804 335.446 656.95 335.557 656.13 335.801L645.089 362.743C645.9 362.504 646.744 362.396 647.589 362.422 649.797 362.466 651.974 362.94 654 363.818 660.265 366.385 664.763 372.668 673.083 372.668 673.709 372.668 674.334 372.635 674.956 372.568L686 345.608C674.742 345.092 671.763 339.614 665.044 336.861ZM661.975 365.054C661.792 364.928 661.605 364.802 661.421 364.676L664.154 358.005 663.388 357.516C661.695 356.384 659.928 355.365 658.1 354.467L655.363 361.147C655.286 361.115 655.215 361.074 655.138 361.047 653.38 360.31 651.532 359.809 649.643 359.557L652.425 352.769C654.043 352.963 655.625 353.385 657.125 354.022 657.462 354.16 657.779 354.322 658.101 354.472L660.966 347.481C660.645 347.333 660.317 347.19 659.981 347.052 658.484 346.433 656.928 345.969 655.336 345.667L658.279 338.485C658.398 338.485 658.527 338.477 658.664 338.477 660.472 338.522 662.254 338.917 663.911 339.641 663.989 339.673 664.059 339.713 664.136 339.741L660.966 347.477C663.077 348.482 665.112 349.639 667.055 350.939L670.179 343.316C672.103 344.641 674.161 345.759 676.319 346.654L673.141 354.409C671.107 353.44 669.144 352.328 667.268 351.081L667.047 350.939 664.159 358.006C666.109 359.293 668.151 360.433 670.269 361.418L667.419 368.36C665.512 367.417 663.691 366.311 661.975 365.054ZM671.241 361.826C670.908 361.689 670.604 361.541 670.286 361.397L673.147 354.441C674.839 355.207 676.607 355.793 678.422 356.187L675.535 363.234C674.073 362.865 672.638 362.395 671.241 361.826Z"/><path d="M635.079 362.743 624.039 335.8C623.219 335.556 622.365 335.445 621.51 335.471 619.312 335.514 617.143 335.986 615.125 336.86 608.405 339.613 605.425 345.091 594.169 345.607L605.216 372.565C605.838 372.632 606.463 372.665 607.088 372.665 615.408 372.665 619.907 366.382 626.172 363.815 628.198 362.935 630.375 362.46 632.583 362.415 633.427 362.391 634.27 362.502 635.079 362.743ZM604.634 363.234 601.746 356.187C603.564 355.792 605.334 355.205 607.029 354.438L609.859 361.408C609.549 361.548 609.253 361.693 608.928 361.826 607.531 362.394 606.096 362.865 604.634 363.234ZM625.034 361.042C624.957 361.074 624.886 361.115 624.81 361.142L622.072 354.462C620.243 355.36 618.475 356.379 616.78 357.511L616.014 358 618.748 364.671C618.564 364.797 618.376 364.923 618.193 365.049 616.477 366.306 614.656 367.413 612.749 368.355L609.91 361.432C612.024 360.441 614.063 359.295 616.01 358.005L613.11 350.938 612.889 351.08C611.017 352.331 609.058 353.445 607.027 354.416L603.846 346.653C606.004 345.759 608.062 344.64 609.986 343.315L613.11 350.938C615.054 349.639 617.089 348.482 619.199 347.476L616.029 339.74C616.106 339.708 616.177 339.668 616.254 339.64 617.912 338.916 619.694 338.521 621.502 338.476 621.639 338.476 621.767 338.476 621.887 338.484L624.83 345.666C623.238 345.968 621.682 346.432 620.185 347.051 619.848 347.189 619.519 347.332 619.199 347.48L622.064 354.471C622.387 354.318 622.704 354.159 623.041 354.021 624.541 353.384 626.123 352.962 627.741 352.768L630.523 359.556C628.636 359.807 626.79 360.306 625.034 361.042Z"/><path d="M642.246 361.524 653.274 334.613C653.665 333.58 653.144 332.426 652.111 332.035 651.118 331.659 650.003 332.125 649.574 333.097L640.084 356.25 630.6 333.1C630.209 332.067 629.055 331.546 628.022 331.937 626.989 332.328 626.468 333.483 626.859 334.516 626.872 334.549 626.885 334.583 626.9 334.616L637.923 361.524 627.794 386.241C627.351 387.253 627.813 388.432 628.825 388.875 629.837 389.318 631.016 388.856 631.459 387.844 631.471 387.816 631.483 387.787 631.494 387.758L640.084 366.8 648.674 387.76C649.117 388.772 650.296 389.233 651.308 388.791 652.287 388.362 652.756 387.241 652.374 386.243Z"/></g></svg>