<svg width="96" height="96" xmlns="http://www.w3.org/2000/svg" xmlns:xlink="http://www.w3.org/1999/xlink" xml:space="preserve" overflow="hidden"><defs><clipPath id="clip0"><rect x="640" y="64" width="96" height="96"/></clipPath></defs><g clip-path="url(#clip0)" transform="translate(-640 -64)"><path d="M713 111C711.3 111 710 109.7 710 108 710 106.3 711.3 105 713 105 714.7 105 716 106.3 716 108 716 109.7 714.7 111 713 111ZM707 117C705.3 117 704 115.7 704 114 704 112.3 705.3 111 707 111 708.7 111 710 112.3 710 114 710 115.7 708.7 117 707 117ZM701 111C699.3 111 698 109.7 698 108 698 106.3 699.3 105 701 105 702.7 105 704 106.3 704 108 704 109.7 702.7 111 701 111ZM707 99C708.7 99 710 100.3 710 102 710 103.7 708.7 105 707 105 705.3 105 704 103.7 704 102 704 100.3 705.3 99 707 99ZM675 110 671 110 671 114C671 115.1 670.1 116 669 116 667.9 116 667 115.1 667 114L667 110 663 110C661.9 110 661 109.1 661 108 661 106.9 661.9 106 663 106L667 106 667 102C667 100.9 667.9 100 669 100 670.1 100 671 100.9 671 102L671 106 675 106C676.1 106 677 106.9 677 108 677 109.1 676.1 110 675 110ZM711 84C699.2 84 705.2 90 688 90 670.8 90 676.8 84 665 84 652.4 84 636.4 140 653 140 668.3 140 662.5 126 688 126 713.5 126 707.7 140 723 140 739.6 140 723.6 84 711 84Z" /></g></svg>