<svg width="96" height="96" xmlns="http://www.w3.org/2000/svg" xmlns:xlink="http://www.w3.org/1999/xlink" xml:space="preserve" overflow="hidden"><g transform="translate(-95 -186)"><path d="M184 221.7C173.3 219.6 159.5 218.7 147 223.7 144.4 224.6 141.6 224.6 139 223.7 126.5 218.7 112.7 219.6 102 221.7 100.4 222 99 223.1 99 224.7 99 226.4 100.3 227.7 102 227.7 102 227.7 102.9 231.7 104.3 238.2 105.7 244.7 109.2 248 120 248 125.3 248 129.2 247.8 132 245 135.5 241.4 139.4 231.9 139.4 231.9 140.1 230.6 141.5 229.8 143 229.8 144.5 229.8 145.9 230.6 146.6 231.9 146.6 231.9 150.5 241.4 154 245 156.8 247.8 160.7 248 166 248 176.8 248 180.2 244.8 181.7 238.2 183.2 231.6 184 227.8 184 227.8 185.7 227.8 187 226.5 187 224.8 187 223 185.6 222 184 221.7Z"/></g></svg>