<svg width="96" height="96" xmlns="http://www.w3.org/2000/svg" xmlns:xlink="http://www.w3.org/1999/xlink" xml:space="preserve" overflow="hidden"><defs><clipPath id="clip0"><rect x="592" y="312" width="96" height="96"/></clipPath></defs><g clip-path="url(#clip0)" transform="translate(-592 -312)"><path d="M640.005 337C627.302 337 617.005 347.297 617.005 360 617.005 372.703 627.302 383 640.005 383 652.708 383 663.005 372.703 663.005 360 662.991 347.303 652.702 337.014 640.005 337ZM636.735 369.364 626.712 359.34 630.118 355.934 636.735 362.551 650.287 349 653.693 352.406Z" fill="#548235"/><path d="M674.125 361.265C673.524 360.529 673.524 359.471 674.125 358.735L676.589 355.716C677.288 354.861 677.161 353.601 676.306 352.902 676.247 352.854 676.186 352.81 676.123 352.769L672.846 350.659C672.047 350.145 671.72 349.14 672.064 348.254L673.475 344.62C673.875 343.59 673.365 342.431 672.335 342.031 672.265 342.004 672.194 341.981 672.121 341.962L668.352 340.968C667.433 340.726 666.812 339.871 666.865 338.922L667.084 335.03C667.146 333.927 666.302 332.983 665.199 332.921 665.125 332.917 665.05 332.917 664.975 332.921L661.083 333.14C660.134 333.193 659.279 332.572 659.037 331.653L658.043 327.884C657.761 326.816 656.667 326.179 655.599 326.461 655.526 326.48 655.455 326.503 655.385 326.53L651.751 327.941C650.865 328.285 649.86 327.958 649.346 327.159L647.236 323.882C646.638 322.953 645.4 322.685 644.472 323.283 644.408 323.324 644.347 323.368 644.289 323.416L641.27 325.88C640.534 326.481 639.476 326.481 638.74 325.88L635.721 323.416C634.866 322.717 633.606 322.844 632.907 323.699 632.859 323.758 632.815 323.819 632.774 323.882L630.664 327.159C630.15 327.958 629.145 328.285 628.259 327.941L624.625 326.53C623.595 326.13 622.437 326.641 622.036 327.67 622.009 327.74 621.986 327.811 621.967 327.884L620.973 331.653C620.731 332.572 619.876 333.193 618.927 333.14L615.035 332.921C613.932 332.859 612.988 333.703 612.926 334.806 612.922 334.88 612.922 334.955 612.926 335.03L613.145 338.922C613.198 339.871 612.577 340.726 611.658 340.968L607.889 341.962C606.821 342.244 606.184 343.338 606.466 344.406 606.485 344.479 606.508 344.55 606.535 344.62L607.946 348.254C608.29 349.14 607.963 350.145 607.164 350.659L603.887 352.769C602.958 353.367 602.69 354.604 603.287 355.533 603.328 355.596 603.372 355.658 603.42 355.716L605.885 358.735C606.486 359.471 606.486 360.529 605.885 361.265L603.42 364.284C602.721 365.139 602.849 366.4 603.704 367.098 603.763 367.146 603.824 367.19 603.887 367.231L607.164 369.341C607.963 369.855 608.29 370.86 607.946 371.746L606.535 375.38C606.135 376.41 606.646 377.568 607.675 377.969 607.745 377.996 607.816 378.019 607.889 378.038L611.658 379.032C612.577 379.274 613.198 380.129 613.145 381.078L612.926 384.97C612.864 386.073 613.708 387.017 614.811 387.079 614.885 387.083 614.96 387.083 615.035 387.079L618.927 386.86C619.876 386.807 620.731 387.428 620.973 388.347L621.967 392.116C622.249 393.184 623.343 393.821 624.411 393.539 624.484 393.52 624.555 393.497 624.625 393.47L628.259 392.059C629.145 391.715 630.15 392.042 630.664 392.841L632.774 396.118C633.372 397.047 634.61 397.315 635.538 396.717 635.602 396.676 635.663 396.632 635.721 396.584L638.74 394.12C639.476 393.519 640.534 393.519 641.27 394.12L644.289 396.584C645.144 397.283 646.404 397.156 647.103 396.301 647.151 396.242 647.195 396.181 647.236 396.118L649.346 392.841C649.86 392.042 650.865 391.715 651.751 392.059L655.385 393.47C656.415 393.87 657.573 393.359 657.974 392.33 658.001 392.26 658.024 392.189 658.043 392.116L659.037 388.347C659.279 387.428 660.134 386.807 661.083 386.86L664.975 387.079C666.078 387.141 667.022 386.297 667.084 385.194 667.088 385.12 667.088 385.045 667.084 384.97L666.865 381.078C666.812 380.129 667.433 379.274 668.352 379.032L672.121 378.038C673.189 377.756 673.826 376.662 673.544 375.594 673.525 375.521 673.502 375.45 673.475 375.38L672.064 371.746C671.72 370.86 672.047 369.855 672.846 369.341L676.123 367.231C677.052 366.633 677.32 365.395 676.722 364.467 676.681 364.403 676.637 364.342 676.589 364.284ZM640.005 386C625.646 386 614.005 374.359 614.005 360 614.005 345.641 625.646 334 640.005 334 654.364 334 666.005 345.641 666.005 360 665.989 374.353 654.358 385.984 640.005 386Z" fill="#548235"/></g></svg>