<svg width="96" height="96" xmlns="http://www.w3.org/2000/svg" xmlns:xlink="http://www.w3.org/1999/xlink" xml:space="preserve" overflow="hidden"><g transform="translate(-126 -505)"><path d="M164 547C164 550.314 161.314 553 158 553 154.686 553 152 550.314 152 547 152 543.686 154.686 541 158 541 161.314 541 164 543.686 164 547Z" /><path d="M196 547C196 550.314 193.314 553 190 553 186.686 553 184 550.314 184 547 184 543.686 186.686 541 190 541 193.314 541 196 543.686 196 547Z" /><path d="M192.2 566C191.5 566 190.9 566.3 190.6 566.8 186.8 571.8 180.8 574.9 174 574.9 167.2 574.9 161.3 571.8 157.4 566.8 157 566.3 156.4 566 155.8 566 154.7 566 153.8 566.9 153.8 568 153.8 568.4 153.9 568.8 154.2 569.2 158.8 575.2 165.9 579 174 579 182.1 579 189.2 575.2 193.8 569.2 194 568.9 194.2 568.5 194.2 568 194.2 566.9 193.3 566 192.2 566Z" /><path d="M174 519C192.7 519 208 534.3 208 553 208 571.7 192.7 587 174 587 155.3 587 140 571.7 140 553 140 534.3 155.3 519 174 519M174 515C153 515 136 532 136 553 136 574 153 591 174 591 195 591 212 574 212 553 212 532 195 515 174 515L174 515Z" /></g></svg>