<svg width="96" height="96" xmlns="http://www.w3.org/2000/svg" xmlns:xlink="http://www.w3.org/1999/xlink" xml:space="preserve" overflow="hidden"><defs><clipPath id="clip0"><rect x="592" y="312" width="96" height="96"/></clipPath></defs><g clip-path="url(#clip0)" transform="translate(-592 -312)"><path d="M657 341 651 341 651 335 657 335 657 341ZM657 357 651 357 651 351 657 351 657 357ZM657 373 651 373 651 367 657 367 657 373ZM657 389 651 389 651 383 657 383 657 389ZM643 341 637 341 637 335 643 335 643 341ZM643 357 637 357 637 351 643 351 643 357ZM643 373 637 373 637 367 643 367 643 373ZM643 395 637 395 637 383 643 383 643 395ZM629 341 623 341 623 335 629 335 629 341ZM629 357 623 357 623 351 629 351 629 357ZM629 373 623 373 623 367 629 367 629 373ZM629 389 623 389 623 383 629 383 629 389ZM664 395 664 328 661 328 661 322 658 322 658 318 622 318 622 322 619 322 619 328 616 328 616 395 612 395 612 402 668 402 668 395 664 395Z" /></g></svg>