<svg width="96" height="96" xmlns="http://www.w3.org/2000/svg" xmlns:xlink="http://www.w3.org/1999/xlink" xml:space="preserve" overflow="hidden"><defs><clipPath id="clip0"><rect x="75" y="166" width="96" height="96"/></clipPath></defs><g clip-path="url(#clip0)" transform="translate(-75 -166)"><path d="M155 182.2C155 186.066 151.866 189.2 148 189.2 144.134 189.2 141 186.066 141 182.2 141 178.334 144.134 175.2 148 175.2 151.866 175.2 155 178.334 155 182.2Z" /><path d="M105 182.2C105 186.066 101.866 189.2 98 189.2 94.134 189.2 91 186.066 91 182.2 91 178.334 94.134 175.2 98 175.2 101.866 175.2 105 178.334 105 182.2Z" /><path d="M130 182.2C130 186.066 126.866 189.2 123 189.2 119.134 189.2 116 186.066 116 182.2 116 178.334 119.134 175.2 123 175.2 126.866 175.2 130 178.334 130 182.2Z" /><path d="M140.8 214.8 136.3 198.2C136.1 197.6 135.8 197 135.4 196.6 133.5 194.6 131.1 193.1 128.5 192.2 126.8 191.6 125 191.3 123.1 191.3 121.2 191.3 119.4 191.6 117.7 192.2 115 193.1 112.7 194.6 110.8 196.6 110.4 197.1 110.1 197.6 109.9 198.2L105.4 214.8C105 216.4 105.8 218.2 107.5 218.6 107.8 218.7 108 218.7 108.3 218.7 109.6 218.7 110.8 217.8 111.2 216.5L115.2 201.9 115.2 252.8 121.2 252.8 121.2 224.2 125.2 224.2 125.2 252.7 131.2 252.7 131.2 201.9 135.2 216.5C135.6 217.8 136.8 218.7 138.1 218.7 138.4 218.7 138.6 218.7 138.9 218.6 140.3 218.2 141.2 216.4 140.8 214.8Z" /><path d="M103.3 214.3 107.8 197.7C108 196.8 108.5 196 109 195.3 107.4 193.9 105.4 192.8 103.3 192.1 101.6 191.5 99.8 191.2 97.9 191.2 96 191.2 94.2 191.5 92.5 192.1 89.8 193 87.5 194.5 85.6 196.5 85.2 197 84.9 197.5 84.7 198.1L80.2 214.8C79.8 216.4 80.6 218.2 82.3 218.6 82.6 218.7 82.8 218.7 83.1 218.7 84.4 218.7 85.6 217.8 86 216.5L90 201.9 90 252.8 96 252.8 96 224.2 100 224.2 100 252.7 106 252.7 106 220.3C103.9 219.3 102.7 216.8 103.3 214.3Z" /><path d="M165.8 214.8 161.2 198.2C161 197.6 160.7 197 160.3 196.6 158.4 194.6 156 193.1 153.4 192.2 151.7 191.6 149.9 191.3 148 191.3 146.1 191.3 144.3 191.6 142.6 192.2 140.5 192.9 138.6 194 136.9 195.4 137.5 196.1 137.9 196.9 138.1 197.7L142.6 214.3C143.3 216.8 142 219.3 139.9 220.3L139.9 252.8 145.9 252.8 145.9 224.2 149.9 224.2 149.9 252.7 155.9 252.7 155.9 201.9 159.9 216.5C160.3 217.8 161.5 218.7 162.8 218.7 163.1 218.7 163.3 218.7 163.6 218.6 165.3 218.2 166.2 216.4 165.8 214.8Z" /></g></svg>