<svg width="96" height="96" xmlns="http://www.w3.org/2000/svg" xmlns:xlink="http://www.w3.org/1999/xlink" xml:space="preserve" overflow="hidden"><defs><clipPath id="clip0"><rect x="176" y="387" width="96" height="96"/></clipPath></defs><g clip-path="url(#clip0)" transform="translate(-176 -387)"><path d="M248 458.6 234.31 436.78C234.065 436.38 233.629 436.137 233.16 436.14 232.689 436.14 232.251 436.382 232 436.78L228 443.2 236.58 457.08C237.306 458.178 237.462 459.557 237 460.79L246.7 460.79C247.494 460.83 248.17 460.218 248.21 459.424 248.225 459.134 248.151 458.847 248 458.6Z" /><path d="M233.1 458.73 211.35 423.34C211.071 422.979 210.636 422.775 210.18 422.79L210 422.79 209.82 422.79C209.364 422.775 208.929 422.979 208.65 423.34L186.9 458.73C186.592 459.161 186.549 459.728 186.79 460.2 187.033 460.628 187.514 460.862 188 460.79L232 460.79C232.486 460.862 232.967 460.628 233.21 460.2 233.451 459.728 233.408 459.161 233.1 458.73ZM213.64 439.92 210.18 443 206.72 439.92 201 443.38 210 428.79 218.76 443Z" /><path d="M200 425C200 426.657 198.657 428 197 428 195.343 428 194 426.657 194 425 194 423.343 195.343 422 197 422 198.657 422 200 423.343 200 425Z" /><path d="M269 400 189 400 189 411 178 411 178 472.79 258 472.79 258 461.79 269 461.79ZM252 467 184 467 184 416.79 252 416.79ZM263 456 258 456 258 411 195 411 195 406 263 406Z" /></g></svg>