<svg width="96" height="96" xmlns="http://www.w3.org/2000/svg" xmlns:xlink="http://www.w3.org/1999/xlink" xml:space="preserve" overflow="hidden"><defs><clipPath id="clip0"><rect x="525" y="166" width="96" height="96"/></clipPath></defs><g clip-path="url(#clip0)" transform="translate(-525 -166)"><path d="M545 179 539 179 539 249 608 249 608 243 545 243 545 179Z" /><path d="M608 237 593 237 593 179 608 179Z" /><path d="M587 237 572 237 572 199 587 199Z" /><path d="M566 237 551 237 551 217 566 217Z" /><path d="M583 192.74 583 179 569.26 179 574.72 184.46 550.59 208.59 553.41 211.41 577.54 187.29 583 192.74Z" /></g></svg>