<svg width="96" height="96" xmlns="http://www.w3.org/2000/svg" xmlns:xlink="http://www.w3.org/1999/xlink" xml:space="preserve" overflow="hidden"><defs><clipPath id="clip0"><rect x="91" y="58" width="96" height="96"/></clipPath></defs><g clip-path="url(#clip0)" transform="translate(-91 -58)"><path d="M139 68C118 68 101 85 101 106 101 127 118 144 139 144 160 144 177 127 177 106 177 85 160 68 139 68ZM137 78C139.8 78 142 80.2 142 83 142 85.8 139.8 88 137 88 134.2 88 132 85.8 132 83 132 80.2 134.2 78 137 78ZM149 134 129 134 129 128 136 128 136 98 130 98 130 92 142 92 142 98 142 128 149 128 149 134Z" /></g></svg>