<svg width="96" height="96" xmlns="http://www.w3.org/2000/svg" xmlns:xlink="http://www.w3.org/1999/xlink" xml:space="preserve" overflow="hidden"><defs><clipPath id="clip0"><rect x="184" y="51" width="96" height="96"/></clipPath></defs><g clip-path="url(#clip0)" transform="translate(-184 -51)"><path d="M232 72.8 246.4 87.3 249.2 84.5 232 68 214.4 84.8 217.2 87.6Z" /><path d="M264 108.9 256 108.9 256 100.9 264 100.9 264 108.9ZM264 120.9 256 120.9 256 112.9 264 112.9 264 120.9ZM252 108.9 244 108.9 244 100.9 252 100.9 252 108.9ZM252 120.9 244 120.9 244 112.9 252 112.9 252 120.9ZM239 108.9 225 108.9 225 104.9 239 104.9 239 108.9ZM232 89.9C233.7 89.9 235 91.2 235 92.9 235 94.6 233.7 95.9 232 95.9 230.3 95.9 229 94.6 229 92.9 229 91.2 230.3 89.9 232 89.9ZM220 108.9 212 108.9 212 100.9 220 100.9 220 108.9ZM220 120.9 212 120.9 212 112.9 220 112.9 220 120.9ZM208 108.9 200 108.9 200 100.9 208 100.9 208 108.9ZM208 120.9 200 120.9 200 112.9 208 112.9 208 120.9ZM244 95.9 244 89.9 232 77.9 220 89.9 220 95.9 196 95.9 196 129.9 225 129.9 225 118.9C225 116.1 227 112.9 232 112.9 237 112.9 239 116.1 239 118.9L239 129.9 268 129.9 268 95.9 244 95.9Z" /></g></svg>