<svg width="96" height="96" xmlns="http://www.w3.org/2000/svg" xmlns:xlink="http://www.w3.org/1999/xlink" xml:space="preserve" overflow="hidden"><defs><clipPath id="clip0"><rect x="525" y="33" width="96" height="96"/></clipPath></defs><g clip-path="url(#clip0)" transform="translate(-525 -33)"><path d="M575.4 102.4 572.6 99.6 591.6 80.6 594.4 83.4 575.4 102.4ZM565.6 92.6 584.6 73.6 587.4 76.4 568.4 95.4 565.6 92.6ZM558.6 85.6 577.6 66.6 580.4 69.4 561.4 88.4 558.6 85.6ZM553 65C550.8 65 549 63.2 549 61 549 58.8 550.8 57 553 57 555.2 57 557 58.8 557 61 557 63.2 555.2 65 553 65ZM602.2 82.2 574.2 54.2C573.4 53.4 572.4 53 571.4 53L553 53C548.6 53 545 56.6 545 61L545 79.3C545 80.4 545.4 81.4 546.2 82.1L574.2 110.1C575.8 111.7 578.3 111.7 579.9 110.1L602.2 87.8C603.7 86.3 603.7 83.7 602.2 82.2Z" /></g></svg>