<svg width="96" height="96" xmlns="http://www.w3.org/2000/svg" xmlns:xlink="http://www.w3.org/1999/xlink" xml:space="preserve" overflow="hidden"><g transform="translate(-95 -59)"><path d="M129 92.94C129 94.641 127.621 96.02 125.92 96.02 124.219 96.02 122.84 94.641 122.84 92.94 122.84 91.24 125.92 86.78 125.92 86.78 125.92 86.78 129 91.24 129 92.94Z"/><path d="M135.56 91.18C135.56 92.395 134.575 93.38 133.36 93.38 132.145 93.38 131.16 92.395 131.16 91.18 131.16 89.97 133.36 86.78 133.36 86.78 133.36 86.78 135.56 90 135.56 91.18Z"/><path d="M120.6 91.18C120.682 92.3923 119.766 93.4414 118.553 93.5232 117.341 93.6051 116.292 92.6887 116.21 91.4765 116.203 91.3778 116.203 91.2787 116.21 91.18 116.21 89.97 118.4 86.78 118.4 86.78 118.4 86.78 120.6 90 120.6 91.18Z"/><path d="M140.84 80.84C140.849 78.5425 138.993 76.6729 136.696 76.6641 136.463 76.6632 136.23 76.6819 136 76.72L136 76.66C135.997 73.7495 133.635 71.3923 130.725 71.395 130.166 71.3956 129.611 71.485 129.08 71.66 127.413 68.5555 123.546 67.3897 120.441 69.0563 118.411 70.1462 117.126 72.2461 117.08 74.55 114.221 73.9769 111.438 75.8301 110.865 78.6893 110.292 81.5485 112.145 84.331 115.005 84.9041 115.257 84.9547 115.513 84.9867 115.77 85L136.88 85C139.094 84.8833 140.833 83.0576 140.84 80.84Z"/><path d="M137.33 123C143.71 119.689 150.812 118.013 158 118.12L158.42 118.12C152.999 113.765 146.301 111.306 139.35 111.12 134.726 111.104 130.155 112.104 125.96 114.05 130.331 116.21 134.203 119.259 137.33 123Z"/><path d="M107.51 134C123.45 132.74 131.76 126.78 132.31 126.38 133.08 125.723 133.888 125.112 134.73 124.55 122.4 110.29 100 112 100 112L100 134.31Z"/><path d="M182.46 129.41C181.687 128.688 180.865 128.019 180 127.41L180 115.7C183.389 114.527 185.618 111.284 185.5 107.7 185.5 102.7 179.62 91.52 178 91.52 176.38 91.52 170.5 102.74 170.5 107.7 170.382 111.284 172.611 114.527 176 115.7L176 125.08C172.214 123.266 168.163 122.068 164 121.53L164 101.76C168.64 100.76 172.14 96.06 172.14 89.51 172.14 82.05 164.43 66 162 66 159.57 66 151.86 82.05 151.86 89.51 151.86 96.06 155.36 100.72 160 101.76L160 121.17C159.32 121.17 158.64 121.12 158 121.12 148.62 121.12 139.94 123.91 134.24 128.75 134.14 128.82 125.35 135.65 107.73 137.02L100 137 100 148 186 148 186 132.21Z"/></g></svg>