<svg width="96" height="96" xmlns="http://www.w3.org/2000/svg" xmlns:xlink="http://www.w3.org/1999/xlink" xml:space="preserve" overflow="hidden"><defs><clipPath id="clip0"><rect x="391" y="171" width="96" height="96"/></clipPath></defs><g clip-path="url(#clip0)" transform="translate(-391 -171)"><path d="M427.315 262 401 251.1 401 185.999 427.315 175.099 427.315 262Z" /><path d="M454.068 196.866 454.068 209.366 431.315 209.366 431.315 225.366 454.068 225.366 454.068 237.866 478.068 217.366 454.068 196.866Z" /><path d="M442.068 205.366 448.068 205.366 448.068 185.366 431.315 185.366 431.315 191.366 442.068 191.366 442.068 205.366Z" /><path d="M442.068 229.366 442.068 245.366 431.315 245.366 431.315 251.366 448.068 251.366 448.068 229.366 442.068 229.366Z" /></g></svg>