<svg width="96" height="96" xmlns="http://www.w3.org/2000/svg" xmlns:xlink="http://www.w3.org/1999/xlink" xml:space="preserve" overflow="hidden"><defs><clipPath id="clip0"><rect x="926" y="54" width="96" height="96"/></clipPath></defs><g clip-path="url(#clip0)" transform="translate(-926 -54)"><path d="M1000 129 988 129 988 120 1000 120 1000 129ZM980 129 968 129 968 120 980 120 980 129ZM960 129 948 129 948 120 960 120 960 129ZM981 109 981 95 954 109 951 68 943 68 940 109 940 136 1008 136 1008 109 1008 95 981 109Z" /></g></svg>