<svg width="96" height="96" xmlns="http://www.w3.org/2000/svg" xmlns:xlink="http://www.w3.org/1999/xlink" xml:space="preserve" overflow="hidden"><defs><clipPath id="clip0"><rect x="796" y="54" width="96" height="96"/></clipPath></defs><g clip-path="url(#clip0)" transform="translate(-796 -54)"><path d="M834.98 79.99C834.98 86.6119 829.612 91.98 822.99 91.98 816.368 91.98 811 86.6119 811 79.99 811 73.3681 816.368 68 822.99 68 829.612 68 834.98 73.3681 834.98 79.99Z" /><path d="M876.65 69.87 843 78.27 843 87.89 849.65 89.56 850.34 92.51C849.684 92.7538 849.09 93.1397 848.6 93.64L838.89 103.34 834.39 103.34C832.212 97.0808 825.372 93.7724 819.113 95.9506 814.388 97.5949 811.178 101.998 811.06 107L811.06 136 835 136 835 113.34 841 113.34C842.327 113.342 843.601 112.817 844.54 111.88L855.71 100.71C856.93 99.471 857.418 97.6875 857 96L860 96.74 860.41 96.74C860.87 96.7365 861.304 96.5318 861.6 96.18L864.25 93.08 876.64 96.18C877.284 96.2811 877.888 95.8412 877.989 95.1974 877.994 95.1651 877.998 95.1326 878 95.1L878 70.89C877.986 70.2937 877.491 69.8218 876.895 69.8359 876.812 69.8379 876.73 69.8493 876.65 69.87ZM860.23 94.53 855.34 93.34C854.546 92.6772 853.562 92.2818 852.53 92.21L852.06 90.1 861.94 92.52Z" /><path d="M839.54 87.21C840.346 87.21 841 86.5563 841 85.75L841 79.75C841 78.9437 840.346 78.29 839.54 78.29 838.734 78.29 838.08 78.9437 838.08 79.75L838.08 85.75C838.08 86.5563 838.734 87.21 839.54 87.21Z" /></g></svg>