<svg width="96" height="96" xmlns="http://www.w3.org/2000/svg" xmlns:xlink="http://www.w3.org/1999/xlink" xml:space="preserve" overflow="hidden"><defs><clipPath id="clip0"><rect x="51" y="36" width="96" height="96"/></clipPath></defs><g clip-path="url(#clip0)" transform="translate(-51 -36)"><path d="M128.47 74.89C135.253 93.5796 125.6 114.229 106.91 121.011 88.2206 127.794 67.5713 118.141 60.7889 99.4515 54.0064 80.7618 63.6591 60.1126 82.3487 53.3302 90.9762 50.1992 100.474 50.4818 108.9 54.12L110.45 50.42C90.1589 41.6851 66.6286 51.0533 57.8937 71.3444 49.1587 91.6356 58.5269 115.166 78.8181 123.901 99.1092 132.636 122.64 123.268 131.374 102.976 135.414 93.5913 135.71 83.016 132.2 73.42Z" /><path d="M128.31 55.45 128.31 55.45 128.31 55.45C124.803 51.8627 120.619 49.0075 116 47.05L116 47.05 101.52 81.77 136.52 67.9 136.52 67.9C134.64 63.2445 131.849 59.0116 128.31 55.45ZM116.6 57.31C115.372 56.0235 115.42 53.9853 116.706 52.7575 117.993 51.5297 120.031 51.5773 121.259 52.8638 122.473 54.1356 122.442 56.1458 121.19 57.38 119.908 58.6282 117.857 58.6008 116.608 57.3186 116.606 57.3158 116.603 57.3129 116.6 57.31ZM107 74.19 109.67 67.81C111.532 68.3074 112.639 70.2202 112.141 72.0824 111.644 73.9446 109.731 75.051 107.869 74.5536 107.564 74.4722 107.272 74.3499 107 74.19ZM120.9 68.58C119.672 67.2935 119.72 65.2553 121.006 64.0275 122.293 62.7997 124.331 62.8473 125.559 64.1338 126.773 65.4056 126.742 67.4158 125.49 68.65 124.202 69.8959 122.149 69.8646 120.9 68.58Z" /><path d="M143.33 65.88C143.549 65.3588 143.549 64.7712 143.33 64.25 141.171 58.8685 137.958 53.9727 133.88 49.85 129.835 45.728 125.021 42.4393 119.71 40.17 119.186 39.95 118.594 39.95 118.07 40.17 117.553 40.3733 117.143 40.7827 116.94 41.3 116.503 42.3852 117.014 43.6205 118.09 44.08 127.779 48.2255 135.441 56.0273 139.41 65.79 139.514 66.0552 139.671 66.2966 139.87 66.5L139.87 66.5C140.468 67.1036 141.367 67.2959 142.16 66.99 142.681 66.7886 143.102 66.3897 143.33 65.88Z" /><path d="M124.83 76.61 94.63 88.61 107.46 57.85 107.31 57.79C103.398 56.0821 99.1785 55.1906 94.91 55.17L94.63 55.17C77.088 55.2234 62.8376 69.3491 62.63 86.89 62.4802 104.56 76.6805 119.006 94.35 119.16L94.64 119.16C112.313 119.148 126.631 104.812 126.619 87.1391 126.617 83.554 126.012 79.9947 124.83 76.61ZM91.7 59C93.3569 57.3296 96.0541 57.3186 97.7245 58.9755 99.3949 60.6324 99.4059 63.3296 97.749 65 96.0922 66.6704 93.3949 66.6814 91.7245 65.0245 91.7163 65.0164 91.7081 65.0082 91.7 65 90.0431 63.3609 90.0288 60.689 91.6679 59.0321 91.6785 59.0213 91.6892 59.0106 91.7 59ZM75.41 92.9C73.9749 94.5357 71.4856 94.6983 69.8499 93.2632 69.6913 93.1242 69.5443 92.9726 69.41 92.81 67.8197 91.1289 67.8934 88.477 69.5745 86.8867 71.2555 85.2965 73.9075 85.3701 75.4977 87.0512 77.0594 88.702 77.0204 91.2968 75.41 92.9ZM79.87 73.9C78.6025 75.1865 76.5321 75.2018 75.2456 73.9344 73.9592 72.6669 73.9438 70.5965 75.2113 69.31 76.4788 68.0235 78.5492 68.0082 79.8356 69.2757 79.8472 69.287 79.8586 69.2985 79.87 69.31 81.1087 70.5737 81.1087 72.5963 79.87 73.86ZM86.54 111.96C85.2725 113.246 83.2021 113.262 81.9156 111.994 80.6292 110.727 80.6138 108.657 81.8813 107.37 83.1488 106.084 85.2192 106.068 86.5056 107.336 86.5172 107.347 86.5286 107.358 86.54 107.37 87.7787 108.634 87.7787 110.656 86.54 111.92ZM88.69 94.96C87.4225 96.2465 85.3521 96.2618 84.0656 94.9944 82.7792 93.7269 82.7638 91.6565 84.0313 90.37 85.2988 89.0835 87.3692 89.0682 88.6556 90.3356 88.6672 90.347 88.6786 90.3585 88.69 90.37 89.9418 91.6362 89.9418 93.6738 88.69 94.94ZM91.21 81.96C89.9616 80.6935 89.9762 78.6548 91.2427 77.4063 92.5092 76.1579 94.548 76.1726 95.7964 77.4391 96.1589 77.8069 96.4277 78.2565 96.58 78.75L95 82.57C93.7324 83.2066 92.1983 82.9476 91.21 81.93ZM102.08 93.46C103.348 92.1735 105.418 92.1582 106.704 93.4256 107.991 94.6931 108.006 96.7635 106.739 98.05 105.471 99.3365 103.401 99.3518 102.114 98.0844 102.103 98.073 102.091 98.0615 102.08 98.05 100.804 96.7953 100.787 94.7439 102.042 93.4681 102.055 93.4553 102.067 93.4426 102.08 93.43ZM108.23 113.22C106.573 114.89 103.876 114.901 102.206 113.244 100.535 111.588 100.524 108.89 102.181 107.22 103.838 105.55 106.535 105.539 108.206 107.196 108.214 107.204 108.222 107.212 108.23 107.22 109.879 108.868 109.88 111.539 108.232 113.188 108.231 113.189 108.231 113.189 108.23 113.19ZM122.7 93.22C121.433 94.5065 119.362 94.5218 118.076 93.2544 116.789 91.9869 116.774 89.9165 118.041 88.63 119.309 87.3435 121.379 87.3282 122.666 88.5956 122.677 88.607 122.689 88.6185 122.7 88.63 123.97 89.8903 123.978 91.9418 122.718 93.212 122.712 93.218 122.706 93.224 122.7 93.23Z" /></g></svg>