<svg width="96" height="96" xmlns="http://www.w3.org/2000/svg" xmlns:xlink="http://www.w3.org/1999/xlink" xml:space="preserve" overflow="hidden"><g transform="translate(-702 -70)"><path d="M729 144.762C730.657 144.762 732 143.419 732 141.762L732 98.68C747.719 101.2 748.312 89.02 760.8 87.22 761.347 87.1448 761.73 86.6403 761.655 86.0932 761.608 85.7541 761.391 85.4624 761.08 85.32 748.4 79.22 740.9 91.054 732 80.889L732 80C732 78.3431 730.657 77 729 77 727.343 77 726 78.3431 726 80L726 141.762C726 143.419 727.343 144.762 729 144.762Z" /><path d="M771 116.4C762.892 116.4 750 118.4 744 125.4 741.263 128.593 739.305 129.521 735 130.449L735 139.8C737.418 140.592 739 141.888 739 143.357 739 145.77 734.747 147.726 729.5 147.726 724.253 147.726 720 145.774 720 143.361 720 142.106 721.157 140.978 723 140.181L723 132.832 721.947 133.061 716.511 134.307C709.046 136.176 704.005 139.93 704.049 144.317 704.049 144.383 704.059 144.447 704.062 144.517 704.057 144.555 704.054 144.594 704.053 144.633 704.107 150.054 709.735 154.254 718.853 156.878 727.971 159.502 740.318 159.717 753 157.4 778.8 152.68 795.942 142.785 795.942 129.73 795.942 120.4 784 116.4 771 116.4ZM756.5 142.73C754.015 142.73 752 140.715 752 138.23 752 135.745 754.015 133.73 756.5 133.73 758.985 133.73 761 135.745 761 138.23 761 140.715 758.985 142.73 756.5 142.73Z" /></g></svg>