<svg width="251" height="251" xmlns="http://www.w3.org/2000/svg" xmlns:xlink="http://www.w3.org/1999/xlink" xml:space="preserve" overflow="hidden"><defs><clipPath id="clip0"><rect x="1926" y="853" width="251" height="251"/></clipPath></defs><g clip-path="url(#clip0)" transform="translate(-1926 -853)"><path d="M2018 1024.04C2043.18 1042.51 2078.57 1037.08 2097.04 1011.91 2112.5 990.853 2111.51 961.953 2094.66 942Z" fill="#C00000" fill-rule="evenodd"/><path d="M2051.57 922C2020.34 922.038 1995.04 947.319 1995 978.516 1994.99 989.334 1998.13 999.923 2004.02 1009L2079 929.022C2070.6 924.388 2061.16 921.971 2051.57 922Z" fill="#C00000" fill-rule="evenodd"/><path d="M2103.49 853 1999.51 853 1926 926.512 1926 1030.49 1999.51 1104 2103.49 1104 2177 1030.49 2177 926.512ZM2051.5 1055.86C2008.77 1055.86 1974.14 1021.23 1974.14 978.5 1974.14 935.773 2008.77 901.137 2051.5 901.137 2094.23 901.137 2128.86 935.773 2128.86 978.5 2128.82 1021.21 2094.21 1055.83 2051.5 1055.86Z" fill="#C00000" fill-rule="evenodd"/></g></svg>