<svg width="96" height="96" xmlns="http://www.w3.org/2000/svg" xmlns:xlink="http://www.w3.org/1999/xlink" xml:space="preserve" overflow="hidden"><g transform="translate(-142 -70)"><path d="M222.522 98.977 224.1 107 226.138 107 224.1 96.625 172 106.982C171.945 106.993 171.946 107.001 172 107.001L182.161 107.001Z"/><path d="M210.655 88.107 213.668 95.64 215.668 95.24 211.768 85.49 159.208 106.982C159.182 106.993 159.184 107.001 159.208 107.001L164.442 107.001Z"/><path d="M234.012 110 146 110 146 150 234.012 150ZM232.012 148 148 148 148 112 232.012 112Z"/><path d="M190.006 139C193.983 139 197.206 134.971 197.206 130 197.206 125.029 193.982 121 190.006 121 186.03 121 182.806 125.029 182.806 130 182.806 134.971 186.029 139 190.006 139ZM190.006 123C192.874 123 195.206 126.14 195.206 130 195.206 133.86 192.873 137 190.006 137 187.139 137 184.806 133.86 184.806 130 184.806 126.14 187.139 123 190.006 123Z"/><path d="M163.918 133.859C166.055 134.452 168.267 133.2 168.86 131.064 169.055 130.361 169.055 129.618 168.86 128.916 168.492 127.568 167.439 126.514 166.091 126.146 163.955 125.552 161.741 126.802 161.147 128.938 160.951 129.642 160.951 130.387 161.147 131.091 161.515 132.439 162.569 133.492 163.918 133.859ZM165 128C166.105 128 167 128.895 167 130 167 131.105 166.105 132 165 132 163.895 132 163 131.105 163 130 163 128.895 163.895 128 165 128Z"/><path d="M215.826 133.921C217.723 133.479 219.051 131.768 219.01 129.821L219.01 129.821C219.036 128.5 218.348 127.268 217.21 126.597 215.314 125.41 212.814 125.985 211.627 127.882 211.23 128.516 211.016 129.249 211.01 129.997 211.01 132.21 212.805 134.004 215.018 134.004 215.289 134.004 215.56 133.976 215.826 133.921ZM215.01 128C216.115 128 217.01 128.895 217.01 130 217.01 131.105 216.115 132 215.01 132 213.905 132 213.01 131.105 213.01 130 213.01 128.895 213.905 128 215.01 128Z"/><path d="M225.011 144 228.011 141 228.011 119 225.011 116 156 116 152 120 152 140 156 144ZM154 120.83 156.83 118 224.183 118 226.011 119.828 226.011 140.174 224.183 142 156.83 142 154 139.174Z"/></g></svg>