<svg width="96" height="96" xmlns="http://www.w3.org/2000/svg" xmlns:xlink="http://www.w3.org/1999/xlink" xml:space="preserve" overflow="hidden"><g transform="translate(-126 -384)"><path d="M185 447 163 447C161.9 447 161 447.9 161 449 161 450.1 161.9 451 163 451L185 451C186.1 451 187 450.1 187 449 187 447.9 186.1 447 185 447Z" /><path d="M164 419.7C165.1 419.7 166 418.8 166 417.7 166 416.6 165.1 415.7 164 415.7L152 415.7C150.9 415.7 150 416.6 150 417.7 150 418.8 150.9 419.7 152 419.7L164 419.7Z" /><path d="M164 428.7C164 432.014 161.314 434.7 158 434.7 154.686 434.7 152 432.014 152 428.7 152 425.386 154.686 422.7 158 422.7 161.314 422.7 164 425.386 164 428.7Z" /><path d="M196 415.7 184 415.7C182.9 415.7 182 416.6 182 417.7 182 418.8 182.9 419.7 184 419.7L196 419.7C197.1 419.7 198 418.8 198 417.7 198 416.6 197.1 415.7 196 415.7Z" /><path d="M196 428.7C196 432.014 193.314 434.7 190 434.7 186.686 434.7 184 432.014 184 428.7 184 425.386 186.686 422.7 190 422.7 193.314 422.7 196 425.386 196 428.7Z" /><path d="M174 398C192.7 398 208 413.3 208 432 208 450.7 192.7 466 174 466 155.3 466 140 450.7 140 432 140 413.3 155.3 398 174 398M174 394C153 394 136 411 136 432 136 453 153 470 174 470 195 470 212 453 212 432 212 411 195 394 174 394L174 394Z" /></g></svg>