<svg width="96" height="96" xmlns="http://www.w3.org/2000/svg" xmlns:xlink="http://www.w3.org/1999/xlink" xml:space="preserve" overflow="hidden"><g transform="translate(-174 -264)"><path d="M188.625 327.669C187.939 326.479 186.417 326.071 185.227 326.758 184.038 327.444 183.63 328.965 184.316 330.155L189.288 338.772C189.974 339.963 191.496 340.372 192.686 339.685 193.877 338.999 194.286 337.478 193.6 336.287Z" /><path d="M225 332.724 213.482 336.038 210.748 333.055 225.748 328.746ZM249.2 319.881 243.648 310.269 236.185 297.344 230.634 287.732C230.161 286.95 229.143 286.699 228.361 287.172 228.254 287.237 228.155 287.314 228.065 287.401L190.282 323.858 197.739 336.784 207.185 334.132 211.411 338.689C212.042 339.372 212.994 339.657 213.896 339.435L226.408 335.872C226.574 335.789 226.822 335.707 226.988 335.624 227.6 335.27 228.024 334.663 228.148 333.967L229.308 327.835 248.282 322.449C249.211 322.081 249.666 321.029 249.298 320.099 249.268 320.025 249.233 319.951 249.194 319.881Z" /><path d="M248.165 296.522 258.136 290.914 260.097 294.4 250.126 300.008Z" /><path d="M249.846 307.342 250.925 303.491 261.941 306.575 260.863 310.427Z" /><path d="M241.684 293.031 244.77 282.016 248.622 283.095 245.536 294.111Z" /></g></svg>