<svg width="96" height="96" xmlns="http://www.w3.org/2000/svg" xmlns:xlink="http://www.w3.org/1999/xlink" xml:space="preserve" overflow="hidden"><defs><clipPath id="clip0"><rect x="835" y="310" width="96" height="96"/></clipPath></defs><g clip-path="url(#clip0)" transform="translate(-835 -310)"><path d="M925.6 390 886.5 322C885 319.3 881.1 319.3 879.6 322L840.4 390C838.9 392.7 840.8 396 843.9 396L883 396 922.1 396C925.2 396 927.1 392.7 925.6 390ZM880 338 886 338 886 373 880 373 880 338ZM883 387C880.2 387 878 384.8 878 382 878 379.2 880.2 377 883 377 885.8 377 888 379.2 888 382 888 384.8 885.8 387 883 387Z" fill="#ED7D31"/></g></svg>