<svg width="96" height="96" xmlns="http://www.w3.org/2000/svg" xmlns:xlink="http://www.w3.org/1999/xlink" xml:space="preserve" overflow="hidden"><g transform="translate(-843 -70)"><path d="M902.9 85.5C902.9 89.366 899.766 92.5 895.9 92.5 892.034 92.5 888.9 89.366 888.9 85.5 888.9 81.634 892.034 78.5 895.9 78.5 899.766 78.5 902.9 81.634 902.9 85.5Z" /><path d="M924.1 129.1 908.9 119.5C908.9 119.4 908.9 119.3 908.9 119.3L904.9 100.3C904.2 97.1 901 95 897.8 95.7 897.6 95.7 897.1 95.9 897.1 95.9L886.9 99.8C886.3 100 885.9 100.4 885.5 100.9L878.1 112 875.5 110.9 875.7 110.4C876.1 109.4 875.6 108.2 874.6 107.8L852.4 98.6C851.4 98.2 850.2 98.7 849.8 99.7L848.3 103.4C847.9 104.4 848.4 105.6 849.4 106L871.6 115.2C872.6 115.6 873.8 115.1 874.2 114.1L874.4 113.6 877.1 114.7C877.1 114.8 877.1 114.9 877.1 115 877.1 115.2 877.1 115.3 877.1 115.5 877.1 117.2 878.4 118.5 880.1 118.5L891.1 118.5C891.8 118.5 892.5 118.3 893 117.8L895.9 115.4 897.6 123.7 893.6 137 874.6 150.2C872.8 151.5 872.4 154 873.6 155.8 874.4 156.9 875.6 157.5 876.9 157.5 877.7 157.5 878.5 157.3 879.2 156.8L899.2 142.8C899.9 142.3 900.5 141.5 900.7 140.7L905 126.5 918 134.7 918.9 153.6C919 155.7 920.8 157.4 922.9 157.4 923 157.4 923 157.4 923.1 157.4 925.3 157.3 927 155.4 926.9 153.2L925.9 132.2C925.9 131 925.2 129.8 924.1 129.1ZM889.9 112.5 884.9 112.5 889.9 104.9 893.4 104.3 894.3 108.8 889.9 112.5Z" /><path d="M933.9 119.5C933.9 122.261 931.661 124.5 928.9 124.5 926.139 124.5 923.9 122.261 923.9 119.5 923.9 116.739 926.139 114.5 928.9 114.5 931.661 114.5 933.9 116.739 933.9 119.5Z" /></g></svg>