<svg width="96" height="96" xmlns="http://www.w3.org/2000/svg" xmlns:xlink="http://www.w3.org/1999/xlink" xml:space="preserve" overflow="hidden"><g transform="translate(-426 -312)"><path d="M513.8 331 449.8 331C447.6 331 445.8 332.8 445.8 335L445.8 349.5C446.9 349.2 448.2 349 449.4 349 450.2 349 451 349.1 451.8 349.2L451.8 337 511.8 337 511.8 375 477.9 375 472.2 381 513.8 381C516 381 517.8 379.2 517.8 377L517.8 335C517.8 332.8 516 331 513.8 331"/><path d="M449.5 370C454.2 370 458 366.2 458 361.5 458 356.8 454.2 353 449.5 353 444.8 353 441 356.8 441 361.5 440.9 366.2 444.8 370 449.5 370"/><path d="M482.2 360.1C480.9 358.1 478.3 357.6 476.3 358.8 475.9 359 475.7 359.4 475.5 359.6L460.9 374.8C459.5 374.1 458 373.5 456.5 373 454.2 372.6 451.8 372.1 449.5 372.1 447.2 372.1 444.8 372.5 442.5 373.2 439.1 374.1 436.1 375.8 433.6 377.9 433 378.5 432.5 379.4 432.3 380.2L430.2 389 460.1 389 460.1 388.9 468.6 379 481.7 365.2C482.9 364 483.3 361.7 482.2 360.1"/></g></svg>