<svg width="96" height="96" xmlns="http://www.w3.org/2000/svg" xmlns:xlink="http://www.w3.org/1999/xlink" xml:space="preserve" overflow="hidden"><defs><clipPath id="clip0"><rect x="650" y="202" width="96" height="96"/></clipPath></defs><g clip-path="url(#clip0)" transform="translate(-650 -202)"><path d="M661 265 661 288 684 288 684 265ZM668 272 664 272 664 268 668 268Z" /><path d="M687 265 687 288 710 288 710 265ZM694 272 690 272 690 268 694 268Z" /><path d="M674 239 674 262 697 262 697 239ZM681 246 677 246 677 242 681 242Z" /><path d="M700 239 700 262 723 262 723 239ZM707 246 703 246 703 242 707 242Z" /><path d="M687 213 687 236 710 236 710 213ZM694 220 690 220 690 216 694 216Z" /><path d="M713 265 713 288 735 288 735 265ZM720 272 716 272 716 268 720 268Z" /></g></svg>