<svg width="96" height="96" xmlns="http://www.w3.org/2000/svg" xmlns:xlink="http://www.w3.org/1999/xlink" xml:space="preserve" overflow="hidden"><g transform="translate(-106 -60)"><path d="M178.5 123.1C176.9 121.5 174.5 120.7 172.3 121.2L167.8 116.8C171.8 111.6 174 105.2 174 98.6 174.1 81.9 160.6 68.4 144 68.3 127.4 68.2 113.9 81.7 113.8 98.3 113.7 114.9 127.2 128.4 143.8 128.5 150.4 128.5 156.9 126.3 162.2 122.3L166.6 126.7C166.2 129 166.9 131.3 168.5 133L181 145.5C183.7 148.2 188.2 148.2 190.9 145.5 193.6 142.8 193.6 138.3 190.9 135.6L178.5 123.1ZM144 122.5C130.7 122.5 120 111.8 120 98.5 120 85.2 130.7 74.5 144 74.5 157.3 74.5 168 85.2 168 98.5 168 111.7 157.2 122.5 144 122.5Z" /><path d="M165.5 97 159.8 97C159.3 97.1 158.8 97.4 158.5 97.8L154.7 101.9 151.5 90.8C151.2 89.9 150.2 89.3 149.3 89.6 148.8 89.8 148.3 90.1 148.1 90.7L142.1 106.6 138 84.6C137.8 83.6 136.9 83 136 83.2 135.4 83.3 134.9 83.8 134.6 84.4L130.3 97 122.5 97 122.5 101 131.6 101C132.4 100.9 133.1 100.3 133.3 99.5L135.8 91.9 139.8 113.4C139.9 114.2 140.6 114.8 141.4 114.8L141.6 114.8C142.3 114.8 143 114.4 143.3 113.7L149.7 96.9 152.3 105.9C152.6 106.8 153.5 107.4 154.5 107.1 154.8 107 155.1 106.8 155.3 106.6L160.7 101 165.6 101 165.6 97Z" /></g></svg>