<svg width="96" height="96" xmlns="http://www.w3.org/2000/svg" xmlns:xlink="http://www.w3.org/1999/xlink" xml:space="preserve" overflow="hidden"><defs><clipPath id="clip0"><rect x="371" y="101" width="96" height="96"/></clipPath></defs><g clip-path="url(#clip0)" transform="translate(-371 -101)"><path d="M451 174.5 451 146.4 453.1 155.1C453.3 155.9 454.1 156.6 455 156.6 456.1 156.6 457 155.7 457 154.6 457 154.4 456.9 154.2 456.9 154.1L454.1 142.2C454 141.8 453.8 141.4 453.5 141.1 452.3 140.1 450.9 139.4 449.3 138.9 448.2 138.7 447.1 138.5 446 138.5 444.9 138.5 443.8 138.7 442.7 139 441.1 139.4 439.7 140.2 438.5 141.2 438.2 141.5 438 141.9 437.9 142.3L435.1 154.2C435.1 154.3 435 154.5 435 154.7 435 155.8 435.9 156.7 437 156.7 437.9 156.7 438.7 156 438.9 155.2L441 146.5 441 174.5 433 174.5 433 158.5 424 158.5 424 142.5 424 129.3 432.7 114.5C433.3 113.5 432.9 112.3 432 111.8 431 111.2 429.8 111.6 429.3 112.5L423 123.2C422.8 123.1 422.6 123 422.3 123 421.2 122.7 420.1 122.5 419 122.5L419 122.5C417.9 122.5 416.8 122.7 415.7 123 415.5 123.1 415.3 123.1 415 123.2L408.7 112.5C408.1 111.5 406.9 111.2 406 111.8 405 112.4 404.7 113.6 405.3 114.5L414 129.3 414 142.5 414 158.5 405 158.5 405 166.5 398 166.5 398 138.4 400.1 147.1C400.3 147.9 401.1 148.6 402 148.6 403.1 148.6 404 147.7 404 146.6 404 146.4 403.9 146.2 403.9 146.1L401.1 134.2C401 133.8 400.8 133.4 400.5 133.1 399.3 132.1 397.9 131.4 396.3 130.9 395.2 130.7 394.1 130.5 393 130.5 391.9 130.5 390.8 130.7 389.7 131 388.1 131.4 386.7 132.2 385.5 133.2 385.2 133.5 385 133.9 384.9 134.3L382.1 146.2C382.1 146.3 382 146.5 382 146.7 382 147.8 382.9 148.7 384 148.7 384.9 148.7 385.7 148 385.9 147.2L388 138.5 388 166.5 379 166.5 379 186.5 459 186.5 459 174.5 451 174.5ZM394 166.5 392 166.5 392 148.5 394 148.5 394 166.5ZM420 158.5 418 158.5 418 140.5 420 140.5 420 158.5ZM447 174.5 445 174.5 445 156.5 447 156.5 447 174.5Z" fill="#404040"/><path d="M397 125.5C397 127.709 395.209 129.5 393 129.5 390.791 129.5 389 127.709 389 125.5 389 123.291 390.791 121.5 393 121.5 395.209 121.5 397 123.291 397 125.5Z" fill="#404040"/><path d="M450 133.5C450 135.709 448.209 137.5 446 137.5 443.791 137.5 442 135.709 442 133.5 442 131.291 443.791 129.5 446 129.5 448.209 129.5 450 131.291 450 133.5Z" fill="#404040"/><path d="M423 117.5C423 119.709 421.209 121.5 419 121.5 416.791 121.5 415 119.709 415 117.5 415 115.291 416.791 113.5 419 113.5 421.209 113.5 423 115.291 423 117.5Z" fill="#404040"/></g></svg>