<svg width="96" height="96" xmlns="http://www.w3.org/2000/svg" xmlns:xlink="http://www.w3.org/1999/xlink" xml:space="preserve" overflow="hidden"><defs><clipPath id="clip0"><rect x="278" y="80" width="96" height="96"/></clipPath></defs><g clip-path="url(#clip0)" transform="translate(-278 -80)"><path d="M356 100 339 100 339 95C339 91.1 335.9 88 332 88L320 88C316.1 88 313 91.1 313 95L313 100 296 100C293.8 100 292 101.8 292 104L292 108 360 108 360 104C360 101.8 358.2 100 356 100ZM319 95C319 94.4 319.4 94 320 94L332 94C332.6 94 333 94.4 333 95L333 100 319 100 319 95Z" /><path d="M298 164C298 166.2 299.8 168 302 168L350 168C352.2 168 354 166.2 354 164L354 112 298 112 298 164ZM339 118 345 118 345 162 339 162 339 118ZM323 118 329 118 329 162 323 162 323 118ZM307 118 313 118 313 162 307 162 307 118Z" /></g></svg>