<svg width="96" height="96" xmlns="http://www.w3.org/2000/svg" xmlns:xlink="http://www.w3.org/1999/xlink" xml:space="preserve" overflow="hidden"><defs><clipPath id="clip0"><rect x="811" y="101" width="96" height="96"/></clipPath></defs><g clip-path="url(#clip0)" transform="translate(-811 -101)"><path d="M831.9 158.6 851.1 139.4 840.4 139.4C843.9 132.6 851 127.9 859.2 127.9 864.5 127.9 869.4 129.9 873.1 133.2L892.6 133.2C886.7 120.6 873.9 112 859.2 112 842.1 112 827.7 123.6 823.5 139.4L812.7 139.4 831.9 158.6Z" /><path d="M905.6 158.6 886.4 139.4 867.2 158.6 878 158.6C874.5 165.4 867.4 170.1 859.2 170.1 853.9 170.1 849 168.1 845.3 164.8L825.7 164.8C831.7 177.4 844.4 186 859.2 186 876.3 186 890.7 174.4 894.9 158.6L905.6 158.6Z" /></g></svg>