<svg width="96" height="96" xmlns="http://www.w3.org/2000/svg" xmlns:xlink="http://www.w3.org/1999/xlink" xml:space="preserve" overflow="hidden"><g transform="translate(-94 -57)"><path d="M144.41 98 152.57 106.16C154.572 103.886 155.776 101.021 156 98Z" /><path d="M141 97.41 141 83.05C133.286 83.5803 127.463 90.2635 127.993 97.9773 128.524 105.691 135.207 111.514 142.921 110.984 145.966 110.775 148.859 109.576 151.16 107.57Z" /><path d="M143 96 156 96C155.494 89.0494 149.952 83.5294 143 83.05Z" /><path d="M170 79 170 115 114 115 114 79ZM178 117 176 117 176 76 178 76C179.105 76 180 75.1046 180 74 180 72.8954 179.105 72 178 72L144 72 144 70C144 68.8954 143.105 68 142 68 140.895 68 140 68.8954 140 70L140 72 106 72C104.895 72 104 72.8954 104 74 104 75.1046 104.895 76 106 76L108 76 108 117 106 117C104.895 117 104 117.895 104 119 104 120.105 104.895 121 106 121L136.54 121 121.14 136.4C120.358 137.19 120.365 138.464 121.155 139.245 121.945 140.026 123.218 140.02 124 139.23L140 123.23 140 141C140 142.105 140.895 143 142 143 143.105 143 144 142.105 144 141L144 123.2 160 139.2C160.781 139.982 162.048 139.982 162.83 139.2 163.612 138.419 163.612 137.151 162.83 136.37L147.46 121 178 121C179.105 121 180 120.105 180 119 180 117.895 179.105 117 178 117Z" /></g></svg>