<svg width="96" height="96" xmlns="http://www.w3.org/2000/svg" xmlns:xlink="http://www.w3.org/1999/xlink" xml:space="preserve" overflow="hidden"><g transform="translate(-100 -88)"><path d="M164.42 160 131.42 160C127.278 160 123.92 163.358 123.92 167.5 123.92 171.642 127.278 175 131.42 175L164.42 175C168.562 175 171.92 171.642 171.92 167.5 171.92 163.358 168.562 160 164.42 160ZM133.42 170.5C131.763 170.5 130.42 169.157 130.42 167.5 130.42 165.843 131.763 164.5 133.42 164.5 135.077 164.5 136.42 165.843 136.42 167.5 136.42 169.157 135.077 170.5 133.42 170.5ZM147.92 170.5C146.263 170.5 144.92 169.157 144.92 167.5 144.92 165.843 146.263 164.5 147.92 164.5 149.577 164.5 150.92 165.843 150.92 167.5 150.92 169.157 149.577 170.5 147.92 170.5ZM162.42 170.5C160.763 170.5 159.42 169.157 159.42 167.5 159.42 165.843 160.763 164.5 162.42 164.5 164.077 164.5 165.42 165.843 165.42 167.5 165.42 169.157 164.077 170.5 162.42 170.5Z" /><path d="M154.83 116C154.83 116.828 154.158 117.5 153.33 117.5 152.502 117.5 151.83 116.828 151.83 116 151.83 115.172 152.502 114.5 153.33 114.5 154.158 114.5 154.83 115.172 154.83 116Z" /><path d="M156.61 106 150 106 150 101.45C151.913 100.345 152.569 97.8991 151.464 95.9859 150.359 94.0727 147.913 93.4172 146 94.5218 144.087 95.6264 143.431 98.0727 144.536 99.9859 144.887 100.594 145.392 101.099 146 101.45L146 106 139.39 106C136.968 106.006 135.005 107.968 135 110.39L135 121.61C135.005 124.032 136.968 125.994 139.39 126L156.61 126C159.032 125.994 160.995 124.032 161 121.61L161 110.39C160.995 107.968 159.032 106.006 156.61 106ZM143 119C141.343 119 140 117.657 140 116 140 114.343 141.343 113 143 113 144.657 113 146 114.343 146 116 146 117.657 144.657 119 143 119ZM153 119C151.343 119 150 117.657 150 116 150 114.343 151.343 113 153 113 154.657 113 156 114.343 156 116 156 117.657 154.657 119 153 119Z" /><path d="M144.83 116C144.83 116.828 144.158 117.5 143.33 117.5 142.502 117.5 141.83 116.828 141.83 116 141.83 115.172 142.502 114.5 143.33 114.5 144.158 114.5 144.83 115.172 144.83 116Z" /><path d="M174 146.82 174 138.49C174 136.01 171.99 134 169.51 134L164 134 164 129 132 129 132 135 124.49 135C124.219 135 124 134.781 124 134.51L124 126.22C127.438 125.205 129.401 121.595 128.386 118.158 128.114 117.236 127.641 116.386 127 115.67L124 118.33C124.42 118.786 124.658 119.38 124.67 120 124.662 121.381 123.537 122.494 122.156 122.486 120.776 122.479 119.663 121.354 119.67 119.973 119.673 119.376 119.89 118.801 120.28 118.35L117.28 115.72C114.923 118.428 115.208 122.534 117.915 124.89 118.528 125.424 119.235 125.837 120 126.11L120 134.51C120 136.99 122.01 139 124.49 139L132 139 132 157 164 157 164 138 169.51 138C169.781 138 170 138.219 170 138.49L170 146.82C166.584 147.925 164.711 151.59 165.816 155.005 166.093 155.86 166.544 156.648 167.14 157.32L170.14 154.66C169.726 154.206 169.498 153.614 169.5 153 169.501 151.619 170.621 150.501 172.002 150.502 173.383 150.503 174.501 151.624 174.5 153.004 174.499 153.61 174.279 154.195 173.88 154.65L176.88 157.28C179.246 154.588 178.982 150.487 176.289 148.121 175.623 147.535 174.844 147.093 174 146.82ZM160 143 157.22 143C157.123 143.017 157.031 143.055 156.95 143.11L153.89 146.24 151.56 140.72 147.21 149.72 144.16 138 141.81 143 137 143 137 141 140.54 141 144.7 132.15 147.78 143.93 151.69 135.93 154.57 142.75 155.57 141.75C156.009 141.306 156.596 141.039 157.22 141L160 141Z" /></g></svg>