<svg width="96" height="96" xmlns="http://www.w3.org/2000/svg" xmlns:xlink="http://www.w3.org/1999/xlink" xml:space="preserve" overflow="hidden"><defs><clipPath id="clip0"><rect x="680" y="457" width="96" height="96"/></clipPath></defs><g clip-path="url(#clip0)" transform="translate(-680 -457)"><path d="M756 467 700 467 700 473 718 473C724.74 473.418 730.355 478.318 731.68 484.94L700 484.94 700 491.06 731.68 491.06C730.27 497.78 724.35 503 717.5 503L700 503 700 508.24 735.38 543.62 739.62 539.38 709.24 509 717.5 509C727.6 509 736.25 501 737.75 491.06L756 491.06 756 484.94 737.75 484.94C737.068 480.414 734.947 476.227 731.7 473L756 473Z" /></g></svg>