<svg width="96" height="96" xmlns="http://www.w3.org/2000/svg" xmlns:xlink="http://www.w3.org/1999/xlink" xml:space="preserve" overflow="hidden"><g transform="translate(-257 -452)"><path d="M285.2 519.8C285 520.1 284.8 520.5 284.8 521 284.8 522.1 285.7 523 286.8 523 287.5 523 288.1 522.7 288.4 522.2 292.2 517.2 298.2 514.1 305 514.1 311.8 514.1 317.7 517.2 321.6 522.2 322 522.7 322.6 523 323.2 523 324.3 523 325.2 522.1 325.2 521 325.2 520.6 325.1 520.2 324.8 519.8 320.2 513.9 313.1 510 305 510 296.9 510 289.8 513.9 285.2 519.8Z" /><path d="M327 494C327 497.314 324.314 500 321 500 317.686 500 315 497.314 315 494 315 490.686 317.686 488 321 488 324.314 488 327 490.686 327 494Z" /><path d="M295 494C295 497.314 292.314 500 289 500 285.686 500 283 497.314 283 494 283 490.686 285.686 488 289 488 292.314 488 295 490.686 295 494Z" /><path d="M305 466C323.7 466 339 481.3 339 500 339 518.7 323.7 534 305 534 286.3 534 271 518.7 271 500 271 481.3 286.3 466 305 466M305 462C284 462 267 479 267 500 267 521 284 538 305 538 326 538 343 521 343 500 343 479 326 462 305 462L305 462Z" /></g></svg>