<svg width="96" height="96" xmlns="http://www.w3.org/2000/svg" xmlns:xlink="http://www.w3.org/1999/xlink" xml:space="preserve" overflow="hidden"><defs><clipPath id="clip0"><rect x="405" y="45" width="96" height="96"/></clipPath></defs><g clip-path="url(#clip0)" transform="translate(-405 -45)"><path d="M453 117C454.7 117 456 118.3 456 120 456 121.7 454.7 123 453 123 451.3 123 450 121.7 450 120 450 118.3 451.3 117 453 117ZM413 127 493 127 493 113 413 113 413 127Z" /><path d="M433 79 443 79 443 83 433 83Z" /><path d="M433 71 443 71 443 75 433 75Z" /><path d="M433 63 443 63 443 67 433 67Z" /><path d="M481 87 457 87 457 77 481 77 481 87ZM447 87 429 87 429 59 447 59 447 87ZM487 87 487 75C487 72.8 485.2 71 483 71L451 71 451 57C451 55.9 450.1 55 449 55L427 55C425.9 55 425 55.9 425 57L425 71 423 71C420.8 71 419 72.8 419 75L419 87 413 101 413 109 493 109 493 101 487 87Z" /></g></svg>