<svg width="96" height="96" xmlns="http://www.w3.org/2000/svg" xmlns:xlink="http://www.w3.org/1999/xlink" xml:space="preserve" overflow="hidden"><defs><clipPath id="clip0"><rect x="592" y="312" width="96" height="96"/></clipPath></defs><g clip-path="url(#clip0)" transform="translate(-592 -312)"><path d="M626 336 632 336 632 351 626 351Z" /><path d="M658 355 622 355 622 332 658 332 658 355ZM640 381C634.5 381 630 376.5 630 371 630 365.5 634.5 361 640 361 645.5 361 650 365.5 650 371 650 376.5 645.5 381 640 381ZM670 326 658 326 622 326 616 326 606 336 606 390C606 392.2 607.8 394 610 394L670 394C672.2 394 674 392.2 674 390L674 330C674 327.8 672.2 326 670 326Z" /><path d="M637 368 643 368 643 374 637 374Z" /></g></svg>