<svg width="96" height="96" xmlns="http://www.w3.org/2000/svg" xmlns:xlink="http://www.w3.org/1999/xlink" xml:space="preserve" overflow="hidden"><defs><clipPath id="clip0"><rect x="645" y="371" width="96" height="96"/></clipPath></defs><g clip-path="url(#clip0)" transform="translate(-645 -371)"><path d="M693 392.8 707.4 407.3 710.2 404.5 693 388 675.4 404.8 678.2 407.6Z" /><path d="M725 428.9 717 428.9 717 420.9 725 420.9 725 428.9ZM725 440.9 717 440.9 717 432.9 725 432.9 725 440.9ZM713 428.9 705 428.9 705 420.9 713 420.9 713 428.9ZM713 440.9 705 440.9 705 432.9 713 432.9 713 440.9ZM700 428.9 686 428.9 686 424.9 700 424.9 700 428.9ZM693 409.9C694.7 409.9 696 411.2 696 412.9 696 414.6 694.7 415.9 693 415.9 691.3 415.9 690 414.6 690 412.9 690 411.2 691.3 409.9 693 409.9ZM681 428.9 673 428.9 673 420.9 681 420.9 681 428.9ZM681 440.9 673 440.9 673 432.9 681 432.9 681 440.9ZM669 428.9 661 428.9 661 420.9 669 420.9 669 428.9ZM669 440.9 661 440.9 661 432.9 669 432.9 669 440.9ZM705 415.9 705 409.9 693 397.9 681 409.9 681 415.9 657 415.9 657 449.9 686 449.9 686 438.9C686 436.1 688 432.9 693 432.9 698 432.9 700 436.1 700 438.9L700 449.9 729 449.9 729 415.9 705 415.9Z" /></g></svg>