<svg width="96" height="96" xmlns="http://www.w3.org/2000/svg" xmlns:xlink="http://www.w3.org/1999/xlink" xml:space="preserve" overflow="hidden"><g transform="translate(-503 -70)"><path d="M510.431 134 520.506 127.025 530.581 134 527.094 122.376 535.756 114.844 544.418 122.376 540.931 134 551.006 127.025 561.081 134 557.594 122.376 566.256 114.844 574.918 122.376 571.431 134 581.506 127.025 591.581 134 588.093 122.376 597.006 114.626 585.381 114.626 581.506 103 577.631 114.626 554.881 114.626 551.006 103 547.131 114.626 524.381 114.626 520.506 103 516.631 114.626 505.006 114.626 513.918 122.376ZM577.631 116.625 579.072 116.625 579.528 115.258 581.506 109.325 583.484 115.258 583.939 116.625 591.658 116.625 586.781 120.866 585.807 121.713 586.178 122.95 588.024 129.105 582.644 125.381 581.506 124.593 580.367 125.381 574.987 129.105 576.834 122.95 577.205 121.713 576.231 120.866 571.354 116.625Z" /></g></svg>