<svg width="96" height="96" xmlns="http://www.w3.org/2000/svg" xmlns:xlink="http://www.w3.org/1999/xlink" xml:space="preserve" overflow="hidden"><defs><clipPath id="clip0"><rect x="921" y="464" width="96" height="96"/></clipPath></defs><g clip-path="url(#clip0)" transform="translate(-921 -464)"><path d="M965.981 471.05 965.981 545.809 957.081 536.914C955.921 535.754 954.041 535.754 952.881 536.914 951.721 538.074 951.721 539.954 952.881 541.114L966.881 555.1C967.986 556.26 969.821 556.305 970.981 555.2 971.015 555.167 971.049 555.134 971.081 555.1L985.071 541.112C986.231 540.007 986.276 538.172 985.171 537.012 985.138 536.978 985.105 536.945 985.071 536.912 983.966 535.752 982.131 535.707 980.971 536.812 980.937 536.844 980.904 536.878 980.871 536.912L971.976 545.807 971.976 471.05C971.976 469.393 970.633 468.05 968.976 468.05 967.319 468.05 965.976 469.393 965.976 471.05Z" fill="#C00000"/></g></svg>