<svg width="96" height="96" xmlns="http://www.w3.org/2000/svg" xmlns:xlink="http://www.w3.org/1999/xlink" xml:space="preserve" overflow="hidden"><defs><clipPath id="clip0"><rect x="1082" y="457" width="96" height="96"/></clipPath></defs><g clip-path="url(#clip0)" transform="translate(-1082 -457)"><path d="M1133.03 545.951 1133.03 471.192 1141.93 480.092C1143.09 481.252 1144.97 481.252 1146.13 480.092 1147.29 478.932 1147.29 477.052 1146.13 475.892L1132.13 461.9C1131.03 460.74 1129.19 460.695 1128.03 461.8 1128 461.833 1127.96 461.866 1127.93 461.9L1113.94 475.89C1112.78 476.995 1112.74 478.83 1113.84 479.99 1113.87 480.024 1113.91 480.057 1113.94 480.09 1115.05 481.25 1116.88 481.295 1118.04 480.19 1118.08 480.158 1118.11 480.124 1118.14 480.09L1127.04 471.195 1127.04 545.951C1127.04 547.608 1128.38 548.951 1130.04 548.951 1131.69 548.951 1133.04 547.608 1133.04 545.951Z" fill="#548235"/></g></svg>