<svg width="96" height="96" xmlns="http://www.w3.org/2000/svg" xmlns:xlink="http://www.w3.org/1999/xlink" xml:space="preserve" overflow="hidden"><g transform="translate(-168 -97)"><path d="M192.985 160.966C192.985 163.726 190.748 165.963 187.988 165.963 185.228 165.963 182.991 163.726 182.991 160.966 182.991 158.206 185.228 155.969 187.988 155.969 190.748 155.969 192.985 158.206 192.985 160.966Z"/><path d="M220.905 160.166C221.347 162.89 219.497 165.457 216.773 165.899 214.049 166.341 211.482 164.491 211.04 161.766 210.598 159.042 212.448 156.476 215.172 156.034 217.896 155.592 220.463 157.442 220.905 160.166Z"/><path d="M248.954 160.966C248.954 163.726 246.717 165.963 243.957 165.963 241.197 165.963 238.96 163.726 238.96 160.966 238.96 158.206 241.197 155.969 243.957 155.969 246.717 155.969 248.954 158.206 248.954 160.966Z"/><path d="M195.984 170.961 195.884 170.961C195.429 169.183 193.82 167.944 191.984 167.961L183.984 167.961C182.159 167.975 180.566 169.201 180.084 170.961L179.984 170.961C177.777 170.966 175.989 172.754 175.984 174.961L177.984 180.961 197.983 180.961 199.983 174.961C199.978 172.755 198.191 170.967 195.984 170.961Z"/><path d="M223.968 170.961C223.44 169.19 221.816 167.972 219.968 167.961L211.968 167.961C210.143 167.975 208.55 169.201 208.068 170.961L207.968 170.961C205.761 170.966 203.973 172.754 203.968 174.961L205.968 180.961 225.967 180.961 227.967 174.961C227.962 172.754 226.175 170.966 223.968 170.961Z"/><path d="M251.953 170.961C251.425 169.19 249.801 167.972 247.953 167.961L239.953 167.961C238.128 167.975 236.534 169.2 236.053 170.961L235.953 170.961C233.746 170.966 231.958 172.754 231.953 174.961L233.953 180.961 253.952 180.961 255.952 174.961C255.947 172.754 254.16 170.966 251.953 170.961Z"/><path d="M262 110 170 110 170 165 181.094 165C178.86 161.206 180.124 156.32 183.918 154.085 184.198 153.92 184.489 153.772 184.788 153.642 183.741 151.329 182.459 149.129 180.963 147.078 189.787 141.08 196.272 132.223 199.325 122L232.675 122C235.728 132.223 242.213 141.08 251.037 147.078 249.536 149.136 248.25 151.342 247.2 153.663 251.227 155.438 253.053 160.141 251.278 164.168 251.152 164.453 251.009 164.731 250.851 165L262 165Z"/></g></svg>