<svg width="96" height="96" xmlns="http://www.w3.org/2000/svg" xmlns:xlink="http://www.w3.org/1999/xlink" xml:space="preserve" overflow="hidden"><defs><clipPath id="clip0"><rect x="666" y="54" width="96" height="96"/></clipPath></defs><g clip-path="url(#clip0)" transform="translate(-666 -54)"><path d="M712 76C712 79.3137 709.314 82 706 82 702.686 82 700 79.3137 700 76 700 72.6863 702.686 70 706 70 709.314 70 712 72.6863 712 76Z" /><path d="M706 61C706 62.6569 704.657 64 703 64 701.343 64 700 62.6569 700 61 700 59.3431 701.343 58 703 58 704.657 58 706 59.3431 706 61Z" /><path d="M723 79C723 80.6569 721.657 82 720 82 718.343 82 717 80.6569 717 79 717 77.3431 718.343 76 720 76 721.657 76 723 77.3431 723 79Z" /><path d="M726 66C726 68.2091 724.209 70 722 70 719.791 70 718 68.2091 718 66 718 63.7909 719.791 62 722 62 724.209 62 726 63.7909 726 66Z" /><path d="M741.9 86.5C741.7 85.6 740.9 85 740 85L688 85C687.1 85 686.3 85.6 686.1 86.5 685.9 87.4 686.3 88.3 687.1 88.7 687.1 88.7 690.1 90.4 690.1 94L690.1 140C690.1 143.3 692.8 146 696.1 146L732.1 146C735.4 146 738.1 143.3 738.1 140L738.1 94C738.1 90.4 740.9 88.8 741 88.8 741.7 88.3 742.2 87.4 741.9 86.5ZM728 138 716 138 716 134 728 134 728 138ZM728 130 716 130 716 126 728 126 728 130ZM728 122 716 122 716 118 728 118 728 122ZM728 114 716 114 716 110 728 110 728 114ZM728 106 716 106 716 102 728 102 728 106ZM734 94 734 95.9C730.9 94.7 725.9 93 721 93 715.6 93 712.3 93.9 708.9 94.8 705.2 95.8 701.3 96.8 694 97L694 94C694 92 693.4 90.3 692.7 89L735.3 89C734.6 90.3 734 92 734 94Z" /></g></svg>