<svg width="96" height="96" xmlns="http://www.w3.org/2000/svg" xmlns:xlink="http://www.w3.org/1999/xlink" xml:space="preserve" overflow="hidden"><defs><clipPath id="clip0"><rect x="380" y="28" width="96" height="96"/></clipPath></defs><g clip-path="url(#clip0)" transform="translate(-380 -28)"><path d="M408 46 394.46 46C394.46 46 394.91 52.32 399.46 54.12 400.96 54.72 401.26 56.51 401.3 57.64 401.3 57.82 401.3 58.64 401.3 58.64 401.588 61.3863 404.048 63.3789 406.795 63.0905 407.207 63.0473 407.611 62.953 408 62.81Z" /><path d="M408 66 394.46 66C394.46 66 394.91 72.32 399.46 74.12 400.96 74.72 401.26 76.51 401.3 77.64 401.3 77.82 401.3 78.64 401.3 78.64 401.588 81.3863 404.048 83.3789 406.795 83.0905 407.207 83.0473 407.611 82.953 408 82.81Z" /><path d="M408 87 394.46 87C394.46 87 394.91 93.32 399.46 95.12 400.96 95.72 401.26 97.51 401.3 98.64 401.3 98.82 401.3 99.64 401.3 99.64 401.588 102.386 404.048 104.379 406.795 104.09 407.207 104.047 407.611 103.953 408 103.81Z" /><path d="M448 46 461.54 46C461.54 46 461.09 52.32 456.54 54.12 455.04 54.72 454.74 56.51 454.7 57.64 454.7 57.82 454.7 58.64 454.7 58.64 454.412 61.3863 451.952 63.3789 449.205 63.0905 448.793 63.0473 448.389 62.953 448 62.81Z" /><path d="M448 66 461.54 66C461.54 66 461.09 72.32 456.54 74.12 455.04 74.72 454.74 76.51 454.7 77.64 454.7 77.82 454.7 78.64 454.7 78.64 454.412 81.3863 451.952 83.3789 449.205 83.0905 448.793 83.0473 448.389 82.953 448 82.81Z" /><path d="M448 87 461.54 87C461.54 87 461.09 93.32 456.54 95.12 455.04 95.72 454.74 97.51 454.7 98.64 454.7 98.82 454.7 99.64 454.7 99.64 454.412 102.386 451.952 104.379 449.205 104.09 448.793 104.047 448.389 103.953 448 103.81Z" /><path d="M441 40 415 40C412.791 40 411 41.7909 411 44L411 108C411 110.209 412.791 112 415 112L441 112C443.209 112 445 110.209 445 108L445 44C445 41.7909 443.209 40 441 40ZM428 107C423.029 107 419 102.971 419 98 419 93.0294 423.029 89 428 89 432.971 89 437 93.0294 437 98 437 102.971 432.971 107 428 107ZM428 85C423.029 85 419 80.9706 419 76 419 71.0294 423.029 67 428 67 432.971 67 437 71.0294 437 76 437 80.9706 432.971 85 428 85ZM428 63C423.029 63 419 58.9706 419 54 419 49.0294 423.029 45 428 45 432.971 45 437 49.0294 437 54 437 58.9706 432.971 63 428 63Z" /></g></svg>