<svg width="96" height="96" xmlns="http://www.w3.org/2000/svg" xmlns:xlink="http://www.w3.org/1999/xlink" xml:space="preserve" overflow="hidden"><defs><clipPath id="clip0"><rect x="1054" y="245" width="96" height="96"/></clipPath></defs><g clip-path="url(#clip0)" transform="translate(-1054 -245)"><path d="M1096.39 287.955C1095.56 287.955 1094.89 287.284 1094.89 286.456 1094.89 286.057 1095.05 285.676 1095.33 285.394L1108.94 271.782C1109.54 271.217 1110.49 271.249 1111.06 271.855 1111.6 272.43 1111.6 273.323 1111.06 273.9L1097.45 287.515C1097.17 287.796 1096.79 287.955 1096.39 287.955Z" /><path d="M1103.54 289.981C1102.71 289.981 1102.04 289.309 1102.04 288.481 1102.04 288.083 1102.2 287.701 1102.48 287.42L1108.5 281.394C1109.09 280.808 1110.04 280.809 1110.62 281.395 1111.21 281.98 1111.21 282.93 1110.62 283.516L1104.6 289.542C1104.32 289.823 1103.94 289.981 1103.54 289.981Z" /><path d="M1118 279C1118 281.684 1117.72 284.361 1117.15 286.984L1117.39 286.877C1119.92 285.633 1121.79 283.363 1122.53 280.646L1123.02 279.08C1123.07 278.922 1123.11 278.762 1123.15 278.601L1123.67 276.574C1123.82 276.007 1123.87 275.42 1123.82 274.836 1122.54 260.219 1114.46 251 1102.5 251 1094.75 251 1088.63 254.883 1084.93 261.591 1086.09 263.369 1087.65 264.853 1089.49 265.928 1091.82 260.738 1095.95 257 1102.5 257 1113.93 257 1118 268.365 1118 279Z" /><path d="M1079 258.329 1079 258.329C1080.48 263.53 1084.12 267.844 1089 270.169L1089 270.169C1084.12 272.495 1080.48 276.809 1079 282.01L1079 282.01C1077.52 276.809 1073.88 272.495 1069 270.169L1069 270.169C1073.88 267.844 1077.52 263.53 1079 258.329Z" /><path d="M1117.39 294.2 1115 293.149C1112.59 297.772 1108.59 301 1102.5 301 1091.07 301 1087 289.635 1087 279 1087 278.062 1087.05 277.119 1087.11 276.177 1085.1 278.111 1083.62 280.532 1082.81 283.206L1081.67 286.857C1083.56 297.424 1089.38 304.557 1097.77 306.474 1098.72 306.691 1099.37 307.562 1099.31 308.534L1098.02 329.834C1097.82 332.339 1099.64 334.552 1102.14 334.834 1104.62 335.032 1106.79 333.184 1106.98 330.706 1107 330.497 1107 330.286 1106.99 330.076L1105.69 308.534C1105.63 307.562 1106.28 306.691 1107.23 306.474 1112.84 305.139 1117.57 301.391 1120.16 296.236 1119.39 295.373 1118.44 294.68 1117.39 294.2Z" /><path d="M1126.34 281.843C1125.26 285.663 1122.58 288.831 1119 290.539L1119 290.539C1122.59 292.248 1125.26 295.418 1126.34 299.239L1126.34 299.239C1127.43 295.418 1130.1 292.248 1133.69 290.539L1133.69 290.539C1130.11 288.828 1127.44 285.659 1126.36 281.839Z" /><path d="M1072 282.843 1072 282.843C1072.74 285.444 1074.56 287.6 1077 288.763L1077 288.763C1074.56 289.926 1072.74 292.082 1072 294.683L1072 294.683C1071.26 292.082 1069.44 289.926 1067 288.763L1067 288.763C1069.44 287.6 1071.26 285.444 1072 282.843Z" /></g></svg>