<svg width="96" height="96" xmlns="http://www.w3.org/2000/svg" xmlns:xlink="http://www.w3.org/1999/xlink" xml:space="preserve" overflow="hidden"><defs><clipPath id="clip0"><rect x="388" y="159" width="96" height="96"/></clipPath></defs><g clip-path="url(#clip0)" transform="translate(-388 -159)"><path d="M461 241 411 241 411 179 422 179 422 185 450 185 450 179 461 179ZM436 171C437.657 171 439 172.343 439 174 439 175.657 437.657 177 436 177 434.343 177 433 175.657 433 174 432.973 172.37 434.272 171.027 435.901 171 435.934 170.999 435.967 170.999 436 171ZM463 173 446 173 446 171C446 168.791 444.209 167 442 167L430 167C427.791 167 426 168.791 426 171L426 173 409 173C406.791 173 405 174.791 405 177L405 243C405 245.209 406.791 247 409 247L463 247C465.209 247 467 245.209 467 243L467 177C467 174.791 465.209 173 463 173Z" /><path d="M438 193 455 193 455 197 438 197Z" /><path d="M438 205 455 205 455 209 438 209Z" /><path d="M438 217 455 217 455 221 438 221Z" /><path d="M438 229 455 229 455 233 438 233Z" /><path d="M417.707 194.8 419.8 192.707 422.4 195.307 429 188.707 431.093 190.8 422.4 199.493 417.707 194.8Z" /><path d="M417.707 206.8 419.8 204.707 422.4 207.307 429 200.707 431.093 202.8 422.4 211.493 417.707 206.8Z" /><path d="M417.707 218.8 419.8 216.707 422.4 219.307 429 212.707 431.093 214.8 422.4 223.493 417.707 218.8Z" /><path d="M417.707 230.8 419.8 228.707 422.4 231.307 429 224.707 431.093 226.8 422.4 235.493 417.707 230.8Z" /></g></svg>