<svg width="96" height="96" xmlns="http://www.w3.org/2000/svg" xmlns:xlink="http://www.w3.org/1999/xlink" xml:space="preserve" overflow="hidden"><defs><clipPath id="clip0"><rect x="292" y="94" width="96" height="96"/></clipPath></defs><g clip-path="url(#clip0)" transform="translate(-292 -94)"><path d="M340 154C333.4 154 328 148.6 328 142 328 135.4 333.4 130 340 130 346.6 130 352 135.4 352 142 352 148.6 346.6 154 340 154ZM367 134.5C366.4 132.3 365.5 130.2 364.4 128.3L366.9 120.8 361.2 115.1 353.7 117.6C351.7 116.5 349.6 115.6 347.4 115L344 108 336 108 332.5 115C330.3 115.6 328.2 116.5 326.3 117.6L318.8 115.1 313.1 120.8 315.6 128.3C314.5 130.3 313.6 132.4 313 134.6L306 138 306 146 313 149.5C313.6 151.7 314.5 153.8 315.6 155.7L313.1 163.2 318.8 168.9 326.3 166.4C328.3 167.5 330.4 168.4 332.6 169L336.1 176 344.1 176 347.6 169C349.8 168.4 351.9 167.5 353.8 166.4L361.3 168.9 367 163.2 364.5 155.7C365.6 153.7 366.5 151.6 367.1 149.4L374.1 145.9 374.1 137.9 367 134.5Z" /></g></svg>