<svg width="96" height="96" xmlns="http://www.w3.org/2000/svg" xmlns:xlink="http://www.w3.org/1999/xlink" xml:space="preserve" overflow="hidden"><defs><clipPath id="clip0"><rect x="680" y="143" width="96" height="96"/></clipPath></defs><g clip-path="url(#clip0)" transform="translate(-680 -143)"><path d="M713 173.8C713 178.771 708.971 182.8 704 182.8 699.029 182.8 695 178.771 695 173.8 695 168.829 699.029 164.8 704 164.8 708.971 164.8 713 168.829 713 173.8Z" /><path d="M761 173.8C761 178.771 756.971 182.8 752 182.8 747.029 182.8 743 178.771 743 173.8 743 168.829 747.029 164.8 752 164.8 756.971 164.8 761 168.829 761 173.8Z" /><path d="M746 217.2 746 208.2C746 206.8 745.4 205.4 744.2 204.6 741.8 202.6 738.6 201.2 735.4 200.4 733.2 199.8 730.6 199.2 728 199.2 725.6 199.2 723 199.6 720.6 200.4 717.4 201.2 714.4 202.8 711.8 204.6 710.6 205.6 710 206.8 710 208.2L710 217.2 746 217.2Z" /><path d="M737 187.8C737 192.771 732.971 196.8 728 196.8 723.029 196.8 719 192.771 719 187.8 719 182.829 723.029 178.8 728 178.8 732.971 178.8 737 182.829 737 187.8Z" /><path d="M768.2 190.6C765.8 188.6 762.6 187.2 759.4 186.4 757.2 185.8 754.6 185.2 752 185.2 749.6 185.2 747 185.6 744.6 186.4 743.4 186.8 742.2 187.2 741 187.8L741 188C741 191.4 739.6 194.6 737.4 196.8 741.2 198 744.2 199.6 746.6 201.4 747.2 202 747.8 202.4 748.2 203.2L770 203.2 770 194.2C770 192.8 769.4 191.4 768.2 190.6Z" /><path d="M709.4 201.4 709.4 201.4C712.2 199.4 715.4 197.8 718.6 196.8 716.4 194.4 715 191.4 715 188 715 187.8 715 187.8 715 187.6 713.8 187.2 712.6 186.6 711.4 186.4 709.2 185.8 706.6 185.2 704 185.2 701.6 185.2 699 185.6 696.6 186.4 693.4 187.4 690.4 188.8 687.8 190.6 686.6 191.4 686 192.8 686 194.2L686 203.2 707.6 203.2C708.2 202.4 708.6 202 709.4 201.4Z" /></g></svg>