<svg width="96" height="96" xmlns="http://www.w3.org/2000/svg" xmlns:xlink="http://www.w3.org/1999/xlink" xml:space="preserve" overflow="hidden"><g transform="translate(-494 -43)"><path d="M547.6 96.3C551 99 554.2 103.7 556.6 109L527.4 109C529.9 103.7 533 98.9 536.4 96.3 538 95 539 93.1 539 91 539 88.9 538 87 536.4 85.7 529.6 80.4 523.7 66.8 522.7 57L561.4 57C560.3 66.8 554.5 80.4 547.7 85.7 546 87 545 88.9 545 91 545 93.1 546 95 547.6 96.3ZM567.3 57 570 57 570 51 514 51 514 57 516.6 57C517.7 68.1 524.1 84.3 533.4 91 524.1 97.7 517.6 113.9 516.6 125L514 125 514 131 570 131 570 125 567.3 125C566.3 113.9 559.8 97.7 550.5 91 559.8 84.3 566.3 68.1 567.3 57Z" /></g></svg>