<svg width="96" height="96" xmlns="http://www.w3.org/2000/svg" xmlns:xlink="http://www.w3.org/1999/xlink" xml:space="preserve" overflow="hidden"><g transform="translate(-323 -70)"><path d="M374.005 131C374.005 132.657 372.662 134 371.005 134 369.348 134 368.005 132.657 368.005 131 368.005 129.343 369.348 128 371.005 128 372.662 128 374.005 129.343 374.005 131Z" /><path d="M377.005 132C377.005 135.314 374.319 138 371.005 138 367.691 138 365.005 135.314 365.005 132L365.005 124 333.005 124 333.005 153 409.005 153 409.005 124 377.005 124ZM337.005 149 337.005 141.201C340.929 142.01 343.995 145.076 344.804 149ZM405.005 141.201 405.005 149 397.206 149C398.015 145.076 401.081 142.01 405.005 141.201Z" /><path d="M409.006 93.5513 409.005 93 407.016 88.0288C405.802 84.9916 402.86 83 399.589 83L342.421 83C339.15 83 336.208 84.9916 334.993 88.0288L333.006 92.9976 333.006 96.1567 338.115 108.077 333.005 120 357.488 120C358.595 119.615 359.665 119.134 360.688 118.563 361.083 118.773 361.493 118.955 361.914 119.105 361.776 119.188 361.647 119.273 361.503 119.355 361.083 119.593 360.67 119.804 360.264 120L409.005 120 403.895 108.077 409.006 96.1521ZM352.495 118.574C351.362 118.908 350.2 119.131 349.024 119.242 345.74 119.574 343.004 119.117 342.913 118.221L342.865 117.746C344.832 118.297 346.891 118.438 348.915 118.16 350.163 118.042 351.398 117.81 352.605 117.469 352.48 117.823 352.442 118.202 352.495 118.574ZM348.751 116.539C345.466 116.871 342.73 116.414 342.64 115.518 342.549 114.623 345.138 113.627 348.422 113.295 348.491 113.288 348.557 113.285 348.625 113.278 349.887 114.098 351.242 114.766 352.66 115.269 352.845 115.336 353.053 115.41 353.278 115.485 351.829 116.059 350.304 116.414 348.751 116.539ZM354.826 109.65 356.03 111.776C355.432 111.619 354.802 111.424 354.156 111.187 351.056 110.051 348.794 108.446 349.104 107.6 349.393 106.812 351.818 106.964 354.658 107.91 354.465 108.487 354.526 109.12 354.826 109.65ZM353.595 112.718C354.516 113.057 355.459 113.335 356.417 113.55 356.042 113.796 355.649 114.072 355.262 114.367 354.571 114.193 353.89 113.983 353.221 113.738 350.121 112.603 347.86 110.997 348.169 110.151L348.334 109.702C349.863 111.057 351.653 112.083 353.595 112.718ZM372.162 108.122C368.896 108.604 366.142 108.273 366.011 107.382 365.879 106.492 368.42 105.378 371.686 104.896 374.951 104.414 377.705 104.745 377.837 105.636 377.968 106.526 375.428 107.639 372.162 108.122ZM378.164 107.851 378.234 108.324C378.365 109.214 375.825 110.327 372.559 110.809 369.293 111.292 366.539 110.96 366.408 110.07L366.338 109.597C368.328 110.057 370.391 110.104 372.4 109.734 374.43 109.507 376.392 108.866 378.164 107.851ZM362.249 107.32C359.376 108.946 356.688 109.63 356.245 108.846 355.801 108.063 357.77 106.109 360.642 104.482 363.515 102.856 366.203 102.172 366.647 102.956 367.091 103.739 365.121 105.693 362.249 107.32ZM364.61 109.054C364.282 109.266 363.95 109.478 363.588 109.684 360.715 111.31 358.027 111.994 357.583 111.21L357.348 110.795C359.37 110.507 361.312 109.807 363.052 108.738 363.44 108.519 363.924 108.226 364.438 107.888ZM354.16 118.518C353.716 117.734 355.685 115.781 358.558 114.154 358.734 114.054 358.906 113.97 359.081 113.877L358.831 115.822C358.755 116.406 358.924 116.995 359.297 117.451 356.77 118.734 354.558 119.221 354.16 118.518ZM372.304 117.554C372.189 118.447 369.442 118.83 366.168 118.409 362.894 117.988 360.333 116.923 360.447 116.03L360.508 115.556C362.299 116.538 364.273 117.142 366.306 117.331 368.322 117.663 370.384 117.577 372.365 117.08ZM366.514 115.714C363.24 115.293 360.679 114.228 360.794 113.335 360.909 112.442 363.656 112.059 366.93 112.48 370.204 112.901 372.765 113.966 372.651 114.859 372.536 115.752 369.788 116.135 366.514 115.714ZM375.59 117.745C375.021 117.672 374.474 117.579 373.958 117.471L374.097 116.395C374.711 116.519 375.28 116.61 375.729 116.667 377.102 116.854 378.491 116.896 379.873 116.792 379.892 117.113 379.985 117.426 380.144 117.705L380.173 117.756C378.653 117.975 377.109 117.971 375.59 117.745ZM380.377 115.085C378.902 115.277 377.408 115.265 375.937 115.05 375.354 114.975 374.797 114.879 374.271 114.767 374.185 113.751 373.554 112.862 372.623 112.446 372.68 112.438 372.743 112.43 372.797 112.422 373.826 112.272 374.844 112.05 375.842 111.758 376.011 111.776 376.181 111.795 376.352 111.817 378.843 112.137 380.917 112.83 381.718 113.536 381.203 113.989 380.752 114.51 380.377 115.085ZM379.598 109.436C380.496 109.834 381.42 110.172 382.363 110.447 384.302 111.092 386.351 111.332 388.386 111.152L388.251 111.611C387.998 112.474 385.224 112.421 382.057 111.49 380.972 111.178 379.917 110.769 378.906 110.268 379.185 110.034 379.419 109.753 379.598 109.436ZM379.349 105.023C380.84 105.063 382.318 105.31 383.742 105.755 386.909 106.686 389.271 108.14 389.017 109.004 388.763 109.868 385.99 109.814 382.823 108.883 381.781 108.583 380.767 108.193 379.792 107.718L379.449 105.398C379.427 105.27 379.394 105.144 379.349 105.023ZM381.562 116.902C381.218 116.294 382.338 114.979 384.198 113.66 386.527 114.053 389.236 114.043 389.815 112.07L390.186 110.809C391.106 110.613 391.765 110.66 391.965 111.012 392.408 111.795 390.439 113.749 387.567 115.375 384.694 117.002 382.006 117.686 381.562 116.902ZM382.901 119.266 382.666 118.85C384.688 118.562 386.629 117.863 388.37 116.794 390.182 115.851 391.781 114.546 393.068 112.96L393.303 113.376C393.747 114.159 391.778 116.113 388.906 117.74 386.033 119.366 383.345 120.05 382.901 119.266ZM394.96 113.266C398.095 112.996 400.653 113.45 400.741 114.315 400.831 115.211 398.242 116.206 394.958 116.539 394.366 116.598 393.801 116.626 393.258 116.636 394.358 115.605 395.163 114.422 394.96 113.266ZM395.232 119.242C393.5 119.481 391.74 119.387 390.044 118.964 390.405 118.752 390.818 118.496 391.251 118.205 392.54 118.312 393.836 118.297 395.122 118.16 397.16 118.027 399.149 117.476 400.966 116.543L401.014 117.018C401.105 117.914 398.516 118.909 395.232 119.242ZM405.006 95.3311 400.433 106 388.507 106C387.153 105.22 385.706 104.612 384.201 104.191 382.707 103.752 379.828 103.065 377.878 103.56 376.019 102.762 373.009 103.053 371.448 103.284 370.619 103.406 369.798 103.572 368.988 103.782L368.065 102.152C366.615 99.5918 361.829 101.937 359.839 103.064 358.389 103.857 357.055 104.844 355.874 106L353.982 106C352.09 105.478 349.717 105.112 348.398 106L341.576 106 337.006 95.3357 337.006 93.0002 405.006 93.0002Z" /></g></svg>