<svg width="96" height="96" xmlns="http://www.w3.org/2000/svg" xmlns:xlink="http://www.w3.org/1999/xlink" xml:space="preserve" overflow="hidden"><defs><clipPath id="clip0"><rect x="466" y="94" width="96" height="96"/></clipPath></defs><g clip-path="url(#clip0)" transform="translate(-466 -94)"><path d="M476 128 476 107 482.7 113.7C489.4 107.7 498.3 104 508 104 529 104 546 121 546 142 546 163 529 180 508 180 497.5 180 488 175.7 481.1 168.9L489.6 160.4C494.3 165.1 500.8 168 508 168 522.3 168 534 156.3 534 142 534 127.7 522.3 116 508 116 501.6 116 495.7 118.3 491.2 122.2L497 128 476 128Z" /></g></svg>