<svg width="96" height="96" xmlns="http://www.w3.org/2000/svg" xmlns:xlink="http://www.w3.org/1999/xlink" xml:space="preserve" overflow="hidden"><g transform="translate(-236 -86)"><path d="M287.031 174.951 287.031 100.192 295.931 109.092C297.091 110.252 298.971 110.252 300.131 109.092 301.291 107.932 301.291 106.052 300.131 104.892L286.131 90.9C285.026 89.7402 283.191 89.6954 282.031 90.8 281.997 90.8325 281.964 90.8659 281.931 90.9L267.941 104.89C266.781 105.995 266.736 107.83 267.841 108.99 267.874 109.024 267.907 109.058 267.941 109.09 269.046 110.25 270.881 110.295 272.041 109.19 272.075 109.158 272.108 109.124 272.141 109.09L281.036 100.195 281.036 174.951C281.036 176.608 282.379 177.951 284.036 177.951 285.693 177.951 287.036 176.608 287.036 174.951Z" /></g></svg>