<svg width="96" height="96" xmlns="http://www.w3.org/2000/svg" xmlns:xlink="http://www.w3.org/1999/xlink" xml:space="preserve" overflow="hidden"><g transform="translate(-116 -47)"><path d="M136.9 104.6 156.1 85.4 145.4 85.4C148.9 78.6 156 73.9 164.2 73.9 169.5 73.9 174.4 75.9 178.1 79.2L197.6 79.2C191.7 66.6 178.9 58 164.2 58 147.1 58 132.7 69.6 128.5 85.4L117.7 85.4 136.9 104.6Z" /><path d="M210.6 104.6 191.4 85.4 172.2 104.6 183 104.6C179.5 111.4 172.4 116.1 164.2 116.1 158.9 116.1 154 114.1 150.3 110.8L130.7 110.8C136.7 123.4 149.4 132 164.2 132 181.3 132 195.7 120.4 199.9 104.6L210.6 104.6Z" /></g></svg>