<svg width="96" height="96" xmlns="http://www.w3.org/2000/svg" xmlns:xlink="http://www.w3.org/1999/xlink" xml:space="preserve" overflow="hidden"><defs><clipPath id="clip0"><rect x="1012" y="101" width="96" height="96"/></clipPath></defs><g clip-path="url(#clip0)" transform="translate(-1012 -101)"><path d="M1028.22 162.925C1025.16 161.801 1022.65 159.513 1021.26 156.556 1019.38 152.376 1019.87 147.514 1022.53 143.786 1025.24 140.107 1029.77 138.239 1034.29 138.936L1037.84 139.526 1037.84 135.656C1037.87 128.572 1042.69 122.405 1049.55 120.656 1056.44 118.996 1063.55 122.315 1066.71 128.656L1067.92 131.066 1070.43 130.176C1074.19 128.851 1078.35 129.433 1081.6 131.736 1084.83 134.101 1086.74 137.862 1086.75 141.866L1086.75 144.986 1090.83 144.986C1096.01 145.181 1100.06 149.539 1099.86 154.722 1099.68 159.669 1095.68 163.623 1090.73 163.756L1085.48 163.756 1072.52 163.734 1072.52 169.966 1080.17 169.986 1090.73 169.986C1099.37 169.782 1106.2 162.616 1106 153.98 1105.82 146.362 1100.17 139.982 1092.63 138.876 1091.83 133.986 1089.15 129.604 1085.15 126.676 1081.01 123.747 1075.85 122.661 1070.88 123.676 1065.99 116.132 1056.88 112.489 1048.14 114.586 1039.6 116.763 1033.21 123.865 1031.95 132.586 1026.29 132.758 1021.02 135.501 1017.64 140.036 1013.62 145.622 1012.89 152.928 1015.72 159.2 1018.6 165.383 1024.65 169.484 1031.46 169.88L1038.8 169.88 1046.52 169.901 1046.52 163.689 1033.52 163.666 1031.72 163.666C1030.58 163.594 1029.46 163.365 1028.39 162.986Z" /><path d="M1067.52 181.986 1067.52 157.986 1080.02 157.986 1059.52 133.986 1039.02 157.986 1051.52 157.986 1051.52 181.986 1067.52 181.986Z" /></g></svg>