<svg width="96" height="96" xmlns="http://www.w3.org/2000/svg" xmlns:xlink="http://www.w3.org/1999/xlink" xml:space="preserve" overflow="hidden"><defs><clipPath id="clip0"><rect x="157" y="239" width="96" height="96"/></clipPath></defs><g clip-path="url(#clip0)" transform="translate(-157 -239)"><path d="M221 269C221 277.837 213.837 285 205 285 196.163 285 189 277.837 189 269 189 260.163 196.163 253 205 253 213.837 253 221 260.163 221 269Z" /><path d="M237 321 237 305C237 302.6 235.8 300.2 233.8 298.6 229.4 295 223.8 292.6 218.2 291 214.2 289.8 209.8 289 205 289 200.6 289 196.2 289.8 191.8 291 186.2 292.6 180.6 295.4 176.2 298.6 174.2 300.2 173 302.6 173 305L173 321 237 321Z" /></g></svg>