<svg width="96" height="96" xmlns="http://www.w3.org/2000/svg" xmlns:xlink="http://www.w3.org/1999/xlink" xml:space="preserve" overflow="hidden"><defs><clipPath id="clip0"><rect x="324" y="51" width="96" height="96"/></clipPath></defs><g clip-path="url(#clip0)" transform="translate(-324 -51)"><path d="M388.3 120.1C386.8 118.6 385.9 116.5 385.9 114.4L385.3 113.8C376.2 119.4 364.6 118.8 356.1 112.3L355.8 112.5C354.7 113.3 354 114.6 354 116L354 125 390 125 390 121.8 388.3 120.1Z" /><path d="M397.5 90.5C402.4 89.7 405.7 85 404.9 80.1 404.1 75.2 399.4 71.9 394.5 72.7 393.1 72.9 391.8 73.5 390.7 74.3 394.8 78.7 397.2 84.4 397.5 90.5Z" /><path d="M412.2 98.4C409.6 96.4 406.6 94.9 403.4 94.2 401.5 93.6 399.5 93.3 397.5 93.1 397.3 97.4 396 101.6 393.7 105.3L394.3 105.9C396.4 105.9 398.5 106.8 400 108.3L402.7 111 414 111 414 102C414 100.6 413.4 99.2 412.2 98.4Z" /><path d="M407.4 119.9 398 110.4C396.7 109.2 395 108.6 393.2 109L389.8 105.7C392.9 101.7 394.5 96.9 394.5 91.9 394.6 79.3 384.4 69 371.7 68.9 359 68.8 348.9 79 348.9 91.6 348.9 104.2 359 114.5 371.7 114.6 376.7 114.6 381.6 113 385.7 109.9L389.1 113.2C388.8 114.9 389.3 116.7 390.5 118L400 127.5C402 129.6 405.4 129.7 407.5 127.7 409.6 125.7 409.7 122.3 407.7 120.2 407.6 120.1 407.5 120 407.4 119.9L407.4 119.9ZM371.8 73.6C381.9 73.6 390 81.7 390 91.8 390 96.1 388.5 100.3 385.7 103.5 383.8 102.6 381.9 101.9 379.9 101.4 377.2 100.6 374.4 100.1 371.6 100.1 368.8 100.1 366 100.6 363.3 101.4 361.4 101.9 359.6 102.6 357.9 103.6 351.4 96 352.3 84.5 359.9 78 363.2 75.1 367.4 73.6 371.8 73.6Z" /><path d="M381.7 87.8C381.7 93.3781 377.178 97.9 371.6 97.9 366.022 97.9 361.5 93.3781 361.5 87.8 361.5 82.2219 366.022 77.7 371.6 77.7 377.178 77.7 381.7 82.2219 381.7 87.8Z" /><path d="M346 93.1C344.2 93.3 342.4 93.6 340.6 94.2 337.5 95.1 334.5 96.6 331.8 98.4 330.6 99.2 330 100.6 330 102L330 111 351.6 111C352 110.4 352.5 109.9 353.1 109.5 348.8 105 346.3 99.2 346 93.1Z" /><path d="M346 90.4C346.3 84.3 348.8 78.6 353 74.1 348.9 71.3 343.3 72.4 340.5 76.6 337.7 80.8 338.8 86.3 343 89.1 343.9 89.7 344.9 90.1 346 90.4Z" /></g></svg>